%TF.GenerationSoftware,KiCad,Pcbnew,(6.0.5-0)*%
%TF.CreationDate,2022-10-30T13:02:09-07:00*%
%TF.ProjectId,hdmi-trident,68646d69-2d74-4726-9964-656e742e6b69,rev?*%
%TF.SameCoordinates,PX754d4c0PY6590fa0*%
%TF.FileFunction,Copper,L1,Top*%
%TF.FilePolarity,Positive*%
%FSLAX46Y46*%
G04 Gerber Fmt 4.6, Leading zero omitted, Abs format (unit mm)*
G04 Created by KiCad (PCBNEW (6.0.5-0)) date 2022-10-30 13:02:09*
%MOMM*%
%LPD*%
G01*
G04 APERTURE LIST*
G04 Aperture macros list*
%AMRoundRect*
0 Rectangle with rounded corners*
0 $1 Rounding radius*
0 $2 $3 $4 $5 $6 $7 $8 $9 X,Y pos of 4 corners*
0 Add a 4 corners polygon primitive as box body*
4,1,4,$2,$3,$4,$5,$6,$7,$8,$9,$2,$3,0*
0 Add four circle primitives for the rounded corners*
1,1,$1+$1,$2,$3*
1,1,$1+$1,$4,$5*
1,1,$1+$1,$6,$7*
1,1,$1+$1,$8,$9*
0 Add four rect primitives between the rounded corners*
20,1,$1+$1,$2,$3,$4,$5,0*
20,1,$1+$1,$4,$5,$6,$7,0*
20,1,$1+$1,$6,$7,$8,$9,0*
20,1,$1+$1,$8,$9,$2,$3,0*%
G04 Aperture macros list end*
%TA.AperFunction,ComponentPad*%
%ADD10R,1.700000X1.700000*%
%TD*%
%TA.AperFunction,ComponentPad*%
%ADD11O,1.700000X1.700000*%
%TD*%
%TA.AperFunction,SMDPad,CuDef*%
%ADD12RoundRect,0.125000X-0.125000X-1.275000X0.125000X-1.275000X0.125000X1.275000X-0.125000X1.275000X0*%
%TD*%
%TA.AperFunction,SMDPad,CuDef*%
%ADD13RoundRect,0.250000X-0.250000X-1.050000X0.250000X-1.050000X0.250000X1.050000X-0.250000X1.050000X0*%
%TD*%
%TA.AperFunction,ComponentPad*%
%ADD14C,2.000000*%
%TD*%
%TA.AperFunction,ComponentPad*%
%ADD15C,1.800000*%
%TD*%
%TA.AperFunction,ViaPad*%
%ADD16C,0.508000*%
%TD*%
%TA.AperFunction,ViaPad*%
%ADD17C,0.609600*%
%TD*%
%TA.AperFunction,Conductor*%
%ADD18C,0.203200*%
%TD*%
%TA.AperFunction,Conductor*%
%ADD19C,0.286000*%
%TD*%
G04 APERTURE END LIST*
D10*
%TO.P,J6,1,Pin_1*%
%TO.N,GND*%
X36007000Y9122000D03*
D11*
%TO.P,J6,2,Pin_2*%
X36007000Y6582000D03*
%TO.P,J6,3,Pin_3*%
X36007000Y4042000D03*
%TD*%
D12*
%TO.P,J5,1,D2+*%
%TO.N,/TDMS_D2_P*%
X22500000Y1500000D03*
%TO.P,J5,3,D2-*%
%TO.N,/TDMS_D2_N*%
X23500000Y1500000D03*
%TO.P,J5,5,D1S*%
%TO.N,GND*%
X24500000Y1500000D03*
%TO.P,J5,7,D0+*%
%TO.N,/TDMS_D0_P*%
X25500000Y1500000D03*
%TO.P,J5,9,D0-*%
%TO.N,/TDMS_D0_N*%
X26500000Y1500000D03*
%TO.P,J5,11,CKS*%
%TO.N,GND*%
X27500000Y1500000D03*
%TO.P,J5,13,CEC*%
%TO.N,/SINK_CEC*%
X28500000Y1500000D03*
%TO.P,J5,15,SCL*%
%TO.N,/SINK_DDC_SCL*%
X29500000Y1500000D03*
%TO.P,J5,17,GND*%
%TO.N,GND*%
X30500000Y1500000D03*
%TO.P,J5,19,HPD/HEAC-*%
%TO.N,/SRC_HEAC_N*%
X31500000Y1500000D03*
D13*
%TO.P,J5,SH,SH*%
%TO.N,GND*%
X33775000Y1400000D03*
X20225000Y1400000D03*
%TD*%
D14*
%TO.P,J1,SH,SH*%
%TO.N,GND*%
X16250000Y11700000D03*
D15*
X9000000Y8400000D03*
D14*
X1750000Y11700000D03*
%TD*%
%TO.P,J2,SH,SH*%
%TO.N,GND*%
X52250000Y11700000D03*
D15*
X45000000Y8400000D03*
D14*
X37750000Y11700000D03*
%TD*%
D11*
%TO.P,J3,12,Pin_12*%
%TO.N,/SINK_HEAC_P*%
X20767000Y11662000D03*
%TO.P,J3,11,Pin_11*%
%TO.N,/SRC_HEAC_P*%
X20767000Y14202000D03*
%TO.P,J3,10,Pin_10*%
%TO.N,/SINK_HEAC_N*%
X23307000Y11662000D03*
%TO.P,J3,9,Pin_9*%
%TO.N,/SRC_HEAC_N*%
X23307000Y14202000D03*
%TO.P,J3,8,Pin_8*%
%TO.N,/SRC_DDC_SCL*%
X25847000Y11662000D03*
%TO.P,J3,7,Pin_7*%
%TO.N,/SINK_DDC_SCL*%
X25847000Y14202000D03*
%TO.P,J3,6,Pin_6*%
%TO.N,/SRC_DDC_SDA*%
X28387000Y11662000D03*
%TO.P,J3,5,Pin_5*%
%TO.N,/SINK_DDC_SDA*%
X28387000Y14202000D03*
%TO.P,J3,4,Pin_4*%
%TO.N,/SRC_CEC*%
X30927000Y11662000D03*
%TO.P,J3,3,Pin_3*%
%TO.N,/SINK_CEC*%
X30927000Y14202000D03*
%TO.P,J3,2,Pin_2*%
%TO.N,+5V*%
X33467000Y11662000D03*
D10*
%TO.P,J3,1,Pin_1*%
X33467000Y14202000D03*
%TD*%
D11*
%TO.P,J4,6,Pin_6*%
%TO.N,/SPLIT_HEAC_P*%
X20767000Y16742000D03*
%TO.P,J4,5,Pin_5*%
%TO.N,/SPLIT_HEAC_N*%
X23307000Y16742000D03*
%TO.P,J4,4,Pin_4*%
%TO.N,/SPLIT_DDC_SCL*%
X25847000Y16742000D03*
%TO.P,J4,3,Pin_3*%
%TO.N,/SPLIT_DDC_SDA*%
X28387000Y16742000D03*
%TO.P,J4,2,Pin_2*%
%TO.N,/SPLIT_CEC*%
X30927000Y16742000D03*
D10*
%TO.P,J4,1,Pin_1*%
%TO.N,/SPLIT_5V*%
X33467000Y16742000D03*
%TD*%
D16*
%TO.N,GND*%
X30900000Y5500000D03*
X26400000Y9900000D03*
X28300000Y4400000D03*
X28400000Y10300000D03*
X30500000Y8200000D03*
X32800000Y2900000D03*
X34700000Y2900000D03*
X34700000Y2100000D03*
X32800000Y2100000D03*
X34700000Y1400000D03*
X34700000Y700000D03*
X32800000Y700000D03*
X32800000Y1400000D03*
X21200000Y2800000D03*
X19300000Y2800000D03*
X19300000Y2100000D03*
X21200000Y2100000D03*
X21200000Y1400000D03*
X19300000Y700000D03*
X21200000Y700000D03*
X19300000Y1400000D03*
D17*
X4300000Y7900000D03*
X9300000Y2900000D03*
X15000000Y2900000D03*
D16*
X21500000Y19100000D03*
X24200000Y18900000D03*
X25600000Y20700000D03*
X31400000Y20700000D03*
X30600000Y18900000D03*
X38200000Y18900000D03*
X38900000Y20700000D03*
X45600000Y20500000D03*
X44700000Y18600000D03*
X48300000Y17500000D03*
X47100000Y16300000D03*
X48800000Y12200000D03*
%TO.N,/SPLIT_HEAC_P*%
X48500000Y16600000D03*
X47800000Y15600000D03*
%TO.N,/SPLIT_CEC*%
X37600000Y17700000D03*
%TO.N,/SRC_DDC_SDA*%
X12900000Y12200000D03*
%TO.N,+5V*%
X14300000Y12800000D03*
%TO.N,GND*%
X19600000Y12900000D03*
X18400000Y11700000D03*
X16700000Y13400000D03*
X17900000Y14600000D03*
X16400000Y16100000D03*
X15200000Y14900000D03*
X14000000Y15700000D03*
X14000000Y17300000D03*
X11400000Y16000000D03*
%TO.N,/SRC_CEC*%
X18900000Y17900000D03*
%TO.N,/SRC_DDC_SCL*%
X12700000Y11500000D03*
D17*
%TO.N,GND*%
X17600000Y10100000D03*
D16*
%TO.N,/SRC_DDC_SCL*%
X24400000Y10200000D03*
D17*
%TO.N,GND*%
X22800000Y10000000D03*
D16*
%TO.N,/SINK_DDC_SCL*%
X28600000Y7000000D03*
%TO.N,/SINK_CEC*%
X31300000Y4900000D03*
X28300000Y3400000D03*
%TO.N,/SRC_HEAC_P*%
X29700000Y3900000D03*
D17*
%TO.N,GND*%
X11900000Y11400000D03*
X19500000Y6500000D03*
X18500000Y8300000D03*
X24300000Y8300000D03*
D16*
X28300000Y6300000D03*
X26700000Y6500000D03*
D17*
X12900000Y8300000D03*
D16*
X25200000Y5800000D03*
D17*
X20700000Y4700000D03*
D16*
X23700000Y4700000D03*
D17*
X13500000Y6500000D03*
X14300000Y4700000D03*
X8900000Y4700000D03*
D16*
%TO.N,/TDMS_D2_N*%
X23330200Y3750000D03*
%TO.N,/TDMS_D2_P*%
X22669800Y3750000D03*
%TO.N,/TDMS_D0_N*%
X26330200Y3750000D03*
%TO.N,/TDMS_D0_P*%
X25669800Y3750000D03*
%TO.N,GND*%
X22000000Y3300000D03*
D17*
X6200000Y6800000D03*
%TD*%
D18*
%TO.N,/SINK_CEC*%
X31300000Y4900000D02*
X31700000Y5300000D01*
X31700000Y5300000D02*
X31700000Y7500000D01*
X32200000Y8000000D02*
X32200000Y12929000D01*
X31700000Y7500000D02*
X32200000Y8000000D01*
X32200000Y12929000D02*
X30927000Y14202000D01*
%TO.N,/SRC_DDC_SCL*%
X23041511Y10558489D02*
X20309910Y10558489D01*
%TO.N,GND*%
X33775000Y1400000D02*
X33775000Y2275000D01*
X33775000Y2275000D02*
X34400000Y2900000D01*
X34400000Y2900000D02*
X34700000Y2900000D01*
X33775000Y1400000D02*
X33775000Y2225000D01*
X33775000Y2225000D02*
X33100000Y2900000D01*
X33100000Y2900000D02*
X32800000Y2900000D01*
X32800000Y2100000D02*
X34700000Y2100000D01*
X32800000Y700000D02*
X34700000Y700000D01*
X33775000Y1400000D02*
X32800000Y1400000D01*
X20225000Y1400000D02*
X20225000Y2175000D01*
X20225000Y2175000D02*
X19600000Y2800000D01*
X19600000Y2800000D02*
X19300000Y2800000D01*
X20225000Y1400000D02*
X20225000Y2125000D01*
X20225000Y2125000D02*
X20900000Y2800000D01*
X20900000Y2800000D02*
X21200000Y2800000D01*
X19300000Y2100000D02*
X19300000Y2800000D01*
X20225000Y1400000D02*
X20225000Y1825000D01*
X20225000Y1825000D02*
X20500000Y2100000D01*
X20500000Y2100000D02*
X21200000Y2100000D01*
X20225000Y1400000D02*
X20225000Y1775000D01*
X19900000Y2100000D02*
X19300000Y2100000D01*
X20225000Y1775000D02*
X19900000Y2100000D01*
X19300000Y1400000D02*
X19300000Y2100000D01*
X21200000Y2100000D02*
X21200000Y1400000D01*
X20225000Y1400000D02*
X20225000Y975000D01*
X20225000Y975000D02*
X20500000Y700000D01*
X20500000Y700000D02*
X21200000Y700000D01*
X20225000Y1400000D02*
X20225000Y1025000D01*
X19900000Y700000D02*
X19300000Y700000D01*
X20225000Y1025000D02*
X19900000Y700000D01*
%TO.N,/SINK_DDC_SCL*%
X28600000Y7000000D02*
X28900000Y6700000D01*
X28900000Y6700000D02*
X28900000Y4300000D01*
X28900000Y4300000D02*
X28800000Y4200000D01*
X28800000Y4200000D02*
X28800000Y3700000D01*
X28800000Y3700000D02*
X28900000Y3600000D01*
X28900000Y3600000D02*
X28900000Y3400000D01*
X28900000Y3400000D02*
X29500000Y2800000D01*
X29500000Y2800000D02*
X29500000Y1500000D01*
D19*
%TO.N,/SPLIT_HEAC_P*%
X48500000Y16600000D02*
X48500000Y16300000D01*
X48500000Y16300000D02*
X47800000Y15600000D01*
D18*
%TO.N,/SPLIT_CEC*%
X30927000Y16742000D02*
X32485000Y18300000D01*
X37000000Y18300000D02*
X37600000Y17700000D01*
X32485000Y18300000D02*
X36000000Y18300000D01*
X36000000Y18300000D02*
X37000000Y18300000D01*
%TO.N,/SRC_DDC_SDA*%
X14400000Y11300000D02*
X14900000Y11800000D01*
X14900000Y11800000D02*
X14900000Y12100000D01*
X12900000Y12200000D02*
X13800000Y11300000D01*
X13800000Y11300000D02*
X14400000Y11300000D01*
%TO.N,+5V*%
X30469910Y15638489D02*
X29823489Y16284910D01*
X28389601Y18300000D02*
X19217716Y18300000D01*
X32030511Y15638489D02*
X30469910Y15638489D01*
X19217716Y18300000D02*
X19110215Y18407501D01*
X18507501Y18407501D02*
X18300000Y18200000D01*
X14400000Y13300000D02*
X14400000Y12900000D01*
X18300000Y18200000D02*
X18300000Y17200000D01*
X29823489Y16866112D02*
X28389601Y18300000D01*
X29823489Y16284910D02*
X29823489Y16866112D01*
X33467000Y14202000D02*
X32030511Y15638489D01*
X14400000Y12900000D02*
X14300000Y12800000D01*
X18300000Y17200000D02*
X14400000Y13300000D01*
X19110215Y18407501D02*
X18507501Y18407501D01*
%TO.N,/SRC_DDC_SDA*%
X27283489Y12765511D02*
X28387000Y11662000D01*
X17300000Y15500000D02*
X26300000Y15500000D01*
X14900000Y12100000D02*
X14900000Y13100000D01*
X14900000Y13100000D02*
X17300000Y15500000D01*
X26300000Y15500000D02*
X27283489Y14516511D01*
X27283489Y14516511D02*
X27283489Y12765511D01*
%TO.N,/SRC_CEC*%
X28511112Y15638489D02*
X29823489Y14326112D01*
X26249601Y17900000D02*
X26950511Y17199090D01*
X29823489Y12765511D02*
X30927000Y11662000D01*
X18900000Y17900000D02*
X26249601Y17900000D01*
X26950511Y17199090D02*
X26950511Y16617888D01*
X26950511Y16617888D02*
X27929910Y15638489D01*
X29823489Y14326112D02*
X29823489Y12765511D01*
X27929910Y15638489D02*
X28511112Y15638489D01*
%TO.N,/SRC_DDC_SCL*%
X13753511Y10446489D02*
X14353511Y10446489D01*
X12700000Y11500000D02*
X13753511Y10446489D01*
X24400000Y10200000D02*
X23400000Y10200000D01*
X23400000Y10200000D02*
X23041511Y10558489D01*
X20168399Y10700000D02*
X17300000Y10700000D01*
X20309910Y10558489D02*
X20168399Y10700000D01*
X17300000Y10700000D02*
X17046489Y10446489D01*
X17046489Y10446489D02*
X14353511Y10446489D01*
%TO.N,/SINK_CEC*%
X28500000Y3200000D02*
X28300000Y3400000D01*
X28500000Y1500000D02*
X28500000Y3200000D01*
D19*
%TO.N,/SRC_HEAC_P*%
X29700000Y3900000D02*
X29800000Y4000000D01*
X20767000Y14202000D02*
X21946769Y13022231D01*
X24167773Y13022231D02*
X24702089Y12487915D01*
X24702089Y11187761D02*
X25372761Y10517089D01*
X21946769Y13022231D02*
X24167773Y13022231D01*
X29800000Y7390004D02*
X29800000Y4000000D01*
X24702089Y12487915D02*
X24702089Y11187761D01*
X25372761Y10517089D02*
X26672915Y10517089D01*
X26672915Y10517089D02*
X29800000Y7390004D01*
%TO.N,/SRC_HEAC_N*%
X23307000Y14202000D02*
X24198000Y14202000D01*
X24349365Y14050635D02*
X24349365Y13460631D01*
X24349365Y13460631D02*
X25003085Y12806911D01*
X25003085Y12806911D02*
X26321239Y12806911D01*
X26991911Y12136239D02*
X26991911Y10818085D01*
X24198000Y14202000D02*
X24349365Y14050635D01*
X26321239Y12806911D02*
X26991911Y12136239D01*
X26991911Y10818085D02*
X30300000Y7509996D01*
X30300000Y7509996D02*
X30300000Y3765698D01*
X30300000Y3765698D02*
X31500000Y2565698D01*
X31500000Y2565698D02*
X31500000Y1500000D01*
%TO.N,/TDMS_D0_N*%
X26219200Y1780800D02*
X26500000Y1500000D01*
%TO.N,/TDMS_D0_P*%
X25780800Y1780800D02*
X25500000Y1500000D01*
X25780800Y3639000D02*
X25669800Y3750000D01*
X25780800Y1780800D02*
X25780800Y3639000D01*
%TO.N,/TDMS_D0_N*%
X26219200Y1780800D02*
X26219200Y3639000D01*
X26219200Y3639000D02*
X26330200Y3750000D01*
%TO.N,/TDMS_D2_P*%
X22780800Y3639000D02*
X22669800Y3750000D01*
%TO.N,/TDMS_D2_N*%
X23219200Y1780800D02*
X23219200Y3639000D01*
X23219200Y3639000D02*
X23330200Y3750000D01*
%TO.N,/TDMS_D2_P*%
X22780800Y1780800D02*
X22780800Y3639000D01*
X22500000Y1500000D02*
X22780800Y1780800D01*
%TO.N,/TDMS_D2_N*%
X23500000Y1500000D02*
X23219200Y1780800D01*
%TD*%
%TA.AperFunction,Conductor*%
%TO.N,GND*%
G36*
X52482590Y21248055D02*
G01*
X52492735Y21246037D01*
X52492736Y21246037D01*
X52500000Y21244592D01*
X52507475Y21246079D01*
X52528049Y21247293D01*
X52602703Y21241418D01*
X52689565Y21234581D01*
X52701220Y21232735D01*
X52880359Y21189727D01*
X52891582Y21186081D01*
X53061793Y21115578D01*
X53072305Y21110222D01*
X53229394Y21013958D01*
X53238941Y21007021D01*
X53379030Y20887373D01*
X53387373Y20879030D01*
X53507021Y20738941D01*
X53513958Y20729394D01*
X53565259Y20645679D01*
X53610221Y20572307D01*
X53615578Y20561793D01*
X53686081Y20391582D01*
X53689727Y20380359D01*
X53732735Y20201220D01*
X53734581Y20189565D01*
X53747293Y20028051D01*
X53746079Y20007475D01*
X53744592Y20000000D01*
X53746037Y19992736D01*
X53746037Y19992735D01*
X53748055Y19982590D01*
X53749500Y19967919D01*
X53749500Y6075200D01*
X53731907Y6026862D01*
X53687358Y6001142D01*
X53674300Y6000000D01*
X47500000Y6000000D01*
X43772526Y2272526D01*
X43725906Y2250786D01*
X43719352Y2250500D01*
X36532081Y2250500D01*
X36517410Y2251945D01*
X36515001Y2252424D01*
X36500000Y2255408D01*
X36492738Y2253964D01*
X36491444Y2253964D01*
X36486916Y2253338D01*
X36306720Y2239156D01*
X36306718Y2239156D01*
X36303774Y2238924D01*
X36300900Y2238234D01*
X36115260Y2193666D01*
X36115256Y2193665D01*
X36112379Y2192974D01*
X36109650Y2191844D01*
X36109645Y2191842D01*
X35990214Y2142372D01*
X35930529Y2117649D01*
X35928007Y2116104D01*
X35928004Y2116102D01*
X35862651Y2076053D01*
X35762702Y2014804D01*
X35613029Y1886971D01*
X35485196Y1737298D01*
X35483651Y1734776D01*
X35410196Y1614909D01*
X35382351Y1569471D01*
X35381220Y1566740D01*
X35309939Y1394653D01*
X35307026Y1387621D01*
X35306335Y1384744D01*
X35306334Y1384740D01*
X35282826Y1286821D01*
X35261076Y1196226D01*
X35260844Y1193282D01*
X35260844Y1193280D01*
X35246662Y1013084D01*
X35246036Y1008558D01*
X35246036Y1007262D01*
X35244592Y1000000D01*
X35246038Y992736D01*
X35246038Y987519D01*
X35246782Y972398D01*
X35235825Y861150D01*
X35232949Y846692D01*
X35194598Y720265D01*
X35188960Y706653D01*
X35138569Y612379D01*
X35126679Y590134D01*
X35118490Y577878D01*
X35034676Y475749D01*
X35024251Y465324D01*
X34922122Y381510D01*
X34909870Y373323D01*
X34793347Y311040D01*
X34779739Y305404D01*
X34668159Y271556D01*
X34653308Y267051D01*
X34638851Y264175D01*
X34527602Y253218D01*
X34512465Y253963D01*
X34507264Y253963D01*
X34500000Y255408D01*
X34499114Y255232D01*
X34454262Y271556D01*
X34428542Y316105D01*
X34427400Y329163D01*
X34427400Y1285091D01*
X34423703Y1295248D01*
X34418331Y1298350D01*
X33135859Y1298350D01*
X33125702Y1294653D01*
X33122600Y1289281D01*
X33122600Y325700D01*
X33105007Y277362D01*
X33060458Y251642D01*
X33047400Y250500D01*
X32780648Y250500D01*
X32732310Y268093D01*
X32727474Y272526D01*
X32000000Y1000000D01*
X31978100Y1000000D01*
X31929762Y1017593D01*
X31904042Y1062142D01*
X31902900Y1075200D01*
X31902900Y1514909D01*
X33122600Y1514909D01*
X33126297Y1504752D01*
X33131669Y1501650D01*
X33660091Y1501650D01*
X33670248Y1505347D01*
X33673350Y1510719D01*
X33673350Y1514909D01*
X33876650Y1514909D01*
X33880347Y1504752D01*
X33885719Y1501650D01*
X34414141Y1501650D01*
X34424298Y1505347D01*
X34427400Y1510719D01*
X34427400Y2478716D01*
X34426938Y2484588D01*
X34413402Y2570051D01*
X34409789Y2581171D01*
X34357295Y2684196D01*
X34350416Y2693663D01*
X34268663Y2775416D01*
X34259196Y2782295D01*
X34156171Y2834789D01*
X34145051Y2838402D01*
X34059588Y2851938D01*
X34053716Y2852400D01*
X33889909Y2852400D01*
X33879752Y2848703D01*
X33876650Y2843331D01*
X33876650Y1514909D01*
X33673350Y1514909D01*
X33673350Y2839141D01*
X33669653Y2849298D01*
X33664281Y2852400D01*
X33496284Y2852400D01*
X33490412Y2851938D01*
X33404949Y2838402D01*
X33393829Y2834789D01*
X33290804Y2782295D01*
X33281337Y2775416D01*
X33199584Y2693663D01*
X33192705Y2684196D01*
X33140211Y2581171D01*
X33136598Y2570051D01*
X33123062Y2484588D01*
X33122600Y2478716D01*
X33122600Y1514909D01*
X31902900Y1514909D01*
X31902899Y2814071D01*
X31902899Y2816288D01*
X31900017Y2840518D01*
X31857992Y2935131D01*
X31853081Y2940033D01*
X31853080Y2940035D01*
X31789638Y3003366D01*
X31789637Y3003367D01*
X31784724Y3008271D01*
X31690038Y3050131D01*
X31684427Y3050785D01*
X31684424Y3050786D01*
X31668451Y3052648D01*
X31668450Y3052648D01*
X31666289Y3052900D01*
X31650942Y3052900D01*
X31462413Y3052899D01*
X31414076Y3070492D01*
X31409239Y3074925D01*
X30617926Y3866238D01*
X30596186Y3912858D01*
X30595900Y3919412D01*
X30595900Y3932432D01*
X35010230Y3932432D01*
X35015990Y3863839D01*
X35017312Y3856637D01*
X35069470Y3674739D01*
X35072164Y3667937D01*
X35158657Y3499637D01*
X35162623Y3493482D01*
X35280164Y3345183D01*
X35285240Y3339926D01*
X35429355Y3217275D01*
X35435353Y3213106D01*
X35600537Y3120789D01*
X35607250Y3117856D01*
X35787210Y3059384D01*
X35794358Y3057812D01*
X35892185Y3046147D01*
X35902706Y3048615D01*
X35905350Y3052149D01*
X35905350Y3057674D01*
X36108650Y3057674D01*
X36112347Y3047517D01*
X36116653Y3045031D01*
X36178239Y3049770D01*
X36185447Y3051041D01*
X36367701Y3101927D01*
X36374534Y3104578D01*
X36543428Y3189892D01*
X36549611Y3193816D01*
X36698720Y3310313D01*
X36704023Y3315363D01*
X36827664Y3458603D01*
X36831886Y3464588D01*
X36925354Y3629120D01*
X36928328Y3635800D01*
X36988059Y3815359D01*
X36989680Y3822493D01*
X37002907Y3927196D01*
X37000513Y3937735D01*
X36997068Y3940350D01*
X36121909Y3940350D01*
X36111752Y3936653D01*
X36108650Y3931281D01*
X36108650Y3057674D01*
X35905350Y3057674D01*
X35905350Y3927091D01*
X35901653Y3937248D01*
X35896281Y3940350D01*
X35022824Y3940350D01*
X35012667Y3936653D01*
X35010230Y3932432D01*
X30595900Y3932432D01*
X30595900Y4156829D01*
X35011151Y4156829D01*
X35013693Y4146320D01*
X35017315Y4143650D01*
X35892091Y4143650D01*
X35902248Y4147347D01*
X35905350Y4152719D01*
X35905350Y4156909D01*
X36108650Y4156909D01*
X36112347Y4146752D01*
X36117719Y4143650D01*
X36991024Y4143650D01*
X37001181Y4147347D01*
X37003523Y4151403D01*
X36995427Y4233976D01*
X36994001Y4241172D01*
X36939312Y4422312D01*
X36936524Y4429078D01*
X36847684Y4596161D01*
X36843639Y4602249D01*
X36724041Y4748891D01*
X36718878Y4754090D01*
X36573078Y4874706D01*
X36567016Y4878795D01*
X36400557Y4968799D01*
X36393813Y4971634D01*
X36213047Y5027590D01*
X36205880Y5029061D01*
X36121837Y5037894D01*
X36111348Y5035279D01*
X36108650Y5031565D01*
X36108650Y4156909D01*
X35905350Y4156909D01*
X35905350Y5026076D01*
X35901653Y5036233D01*
X35897516Y5038622D01*
X35821927Y5031743D01*
X35814728Y5030369D01*
X35633208Y4976945D01*
X35626421Y4974203D01*
X35458721Y4886532D01*
X35452603Y4882528D01*
X35305128Y4763956D01*
X35299903Y4758839D01*
X35178266Y4613878D01*
X35174132Y4607840D01*
X35082975Y4442025D01*
X35080088Y4435289D01*
X35022873Y4254925D01*
X35021351Y4247762D01*
X35011151Y4156829D01*
X30595900Y4156829D01*
X30595900Y7456362D01*
X30596287Y7461625D01*
X30597796Y7466021D01*
X30597462Y7474933D01*
X30595953Y7515118D01*
X30595900Y7517939D01*
X30595900Y7537519D01*
X30595265Y7540926D01*
X30594980Y7544015D01*
X30594714Y7548112D01*
X30593921Y7569239D01*
X30593661Y7576176D01*
X30588208Y7588868D01*
X30583372Y7604784D01*
X30583247Y7605458D01*
X30580843Y7618364D01*
X30566226Y7642077D01*
X30561148Y7651852D01*
X30552244Y7672577D01*
X30552243Y7672578D01*
X30550148Y7677455D01*
X30546199Y7682262D01*
X30540058Y7688403D01*
X30529216Y7702118D01*
X30526644Y7706291D01*
X30523001Y7712201D01*
X30498912Y7730519D01*
X30491257Y7737204D01*
X27309837Y10918625D01*
X27288097Y10965245D01*
X27287811Y10971799D01*
X27287811Y11321617D01*
X27305404Y11369955D01*
X27349953Y11395675D01*
X27400611Y11386742D01*
X27435298Y11342345D01*
X27450015Y11291021D01*
X27539916Y11116092D01*
X27662083Y10961956D01*
X27664877Y10959578D01*
X27664878Y10959577D01*
X27699691Y10929949D01*
X27811862Y10834484D01*
X27815063Y10832695D01*
X27815066Y10832693D01*
X27875949Y10798667D01*
X27983547Y10738533D01*
X27987044Y10737397D01*
X27987048Y10737395D01*
X28079615Y10707319D01*
X28170600Y10677756D01*
X28277984Y10664951D01*
X28362237Y10654904D01*
X28362239Y10654904D01*
X28365895Y10654468D01*
X28561994Y10669557D01*
X28737582Y10718582D01*
X28747883Y10721458D01*
X28747885Y10721459D01*
X28751428Y10722448D01*
X28896350Y10795653D01*
X28923697Y10809467D01*
X28923698Y10809468D01*
X28926981Y10811126D01*
X29019595Y10883484D01*
X29079067Y10929949D01*
X29081966Y10932214D01*
X29210480Y11081099D01*
X29225344Y11107265D01*
X29305810Y11248909D01*
X29305812Y11248912D01*
X29307628Y11252110D01*
X29349686Y11378541D01*
X29368548Y11435240D01*
X29368549Y11435243D01*
X29369710Y11438734D01*
X29394360Y11633862D01*
X29394753Y11662000D01*
X29393963Y11670055D01*
X29375921Y11854073D01*
X29375920Y11854078D01*
X29375561Y11857740D01*
X29318714Y12046025D01*
X29226379Y12219682D01*
X29102072Y12372097D01*
X28950528Y12497465D01*
X28777520Y12591010D01*
X28589637Y12649170D01*
X28427508Y12666210D01*
X28397690Y12669344D01*
X28397689Y12669344D01*
X28394035Y12669728D01*
X28355378Y12666210D01*
X28201824Y12652236D01*
X28201823Y12652236D01*
X28198166Y12651903D01*
X28194641Y12650866D01*
X28194638Y12650865D01*
X28032950Y12603277D01*
X28009489Y12596372D01*
X28006235Y12594671D01*
X28006228Y12594668D01*
X27929110Y12554352D01*
X27878122Y12547549D01*
X27841097Y12567821D01*
X27560015Y12848903D01*
X27538275Y12895523D01*
X27537989Y12902077D01*
X27537989Y13444849D01*
X27555582Y13493187D01*
X27600131Y13518907D01*
X27650789Y13509974D01*
X27661664Y13501464D01*
X27662083Y13501956D01*
X27811862Y13374484D01*
X27815063Y13372695D01*
X27815066Y13372693D01*
X27851622Y13352263D01*
X27983547Y13278533D01*
X27987044Y13277397D01*
X27987048Y13277395D01*
X28072809Y13249530D01*
X28170600Y13217756D01*
X28277984Y13204951D01*
X28362237Y13194904D01*
X28362239Y13194904D01*
X28365895Y13194468D01*
X28561994Y13209557D01*
X28677354Y13241766D01*
X28747883Y13261458D01*
X28747885Y13261459D01*
X28751428Y13262448D01*
X28896490Y13335724D01*
X28923697Y13349467D01*
X28923698Y13349468D01*
X28926981Y13351126D01*
X29054300Y13450599D01*
X29079067Y13469949D01*
X29081966Y13472214D01*
X29210480Y13621099D01*
X29251188Y13692758D01*
X29305810Y13788909D01*
X29305812Y13788912D01*
X29307628Y13792110D01*
X29369710Y13978734D01*
X29394360Y14173862D01*
X29394753Y14202000D01*
X29394275Y14206874D01*
X29407063Y14256699D01*
X29448886Y14286647D01*
X29500175Y14282705D01*
X29522288Y14267395D01*
X29546962Y14242722D01*
X29568703Y14196102D01*
X29568989Y14189546D01*
X29568989Y12797983D01*
X29567544Y12783315D01*
X29564003Y12765511D01*
X29565448Y12758246D01*
X29568989Y12740444D01*
X29571770Y12726465D01*
X29571769Y12726465D01*
X29571770Y12726463D01*
X29583755Y12666210D01*
X29587870Y12660052D01*
X29587870Y12660051D01*
X29595867Y12648083D01*
X29625805Y12603277D01*
X29625808Y12603274D01*
X29640005Y12582027D01*
X29646162Y12577913D01*
X29655095Y12571944D01*
X29666490Y12562592D01*
X30020888Y12208194D01*
X30042628Y12161574D01*
X30033614Y12118795D01*
X30000739Y12058996D01*
X29941269Y11871524D01*
X29919345Y11676070D01*
X29919653Y11672402D01*
X29919653Y11672399D01*
X29931109Y11535980D01*
X29935803Y11480081D01*
X29990015Y11291021D01*
X30079916Y11116092D01*
X30202083Y10961956D01*
X30204877Y10959578D01*
X30204878Y10959577D01*
X30239691Y10929949D01*
X30351862Y10834484D01*
X30355063Y10832695D01*
X30355066Y10832693D01*
X30415949Y10798667D01*
X30523547Y10738533D01*
X30527044Y10737397D01*
X30527048Y10737395D01*
X30619615Y10707319D01*
X30710600Y10677756D01*
X30817984Y10664951D01*
X30902237Y10654904D01*
X30902239Y10654904D01*
X30905895Y10654468D01*
X31101994Y10669557D01*
X31277582Y10718582D01*
X31287883Y10721458D01*
X31287885Y10721459D01*
X31291428Y10722448D01*
X31436350Y10795653D01*
X31463697Y10809467D01*
X31463698Y10809468D01*
X31466981Y10811126D01*
X31559595Y10883484D01*
X31619067Y10929949D01*
X31621966Y10932214D01*
X31750480Y11081099D01*
X31804914Y11176920D01*
X31844087Y11210260D01*
X31895526Y11210619D01*
X31935161Y11177830D01*
X31945500Y11139776D01*
X31945500Y8136565D01*
X31927907Y8088227D01*
X31923475Y8083392D01*
X31670502Y7830420D01*
X31543001Y7702919D01*
X31531606Y7693567D01*
X31516516Y7683484D01*
X31502319Y7662237D01*
X31502316Y7662234D01*
X31460266Y7599301D01*
X31458822Y7592039D01*
X31458821Y7592038D01*
X31443802Y7516530D01*
X31440514Y7500000D01*
X31441959Y7492736D01*
X31444055Y7482199D01*
X31445500Y7467528D01*
X31445500Y5436566D01*
X31427907Y5388228D01*
X31423474Y5383391D01*
X31372030Y5331948D01*
X31325409Y5310209D01*
X31307097Y5310848D01*
X31300000Y5311972D01*
X31294153Y5311046D01*
X31270281Y5307265D01*
X31172694Y5291809D01*
X31057849Y5233292D01*
X30966708Y5142151D01*
X30908191Y5027306D01*
X30888028Y4900000D01*
X30908191Y4772694D01*
X30966708Y4657849D01*
X31057849Y4566708D01*
X31172694Y4508191D01*
X31300000Y4488028D01*
X31427306Y4508191D01*
X31542151Y4566708D01*
X31633292Y4657849D01*
X31691809Y4772694D01*
X31711972Y4900000D01*
X31710848Y4907096D01*
X31711046Y4908114D01*
X31711046Y4911763D01*
X31711755Y4911763D01*
X31720666Y4957591D01*
X31731948Y4972030D01*
X31856998Y5097081D01*
X31868394Y5106433D01*
X31877327Y5112402D01*
X31883484Y5116516D01*
X31939734Y5200699D01*
X31954500Y5274933D01*
X31954500Y5274937D01*
X31959485Y5300000D01*
X31955945Y5317798D01*
X31954500Y5332468D01*
X31954500Y6472432D01*
X35010230Y6472432D01*
X35015990Y6403839D01*
X35017312Y6396637D01*
X35069470Y6214739D01*
X35072164Y6207937D01*
X35158657Y6039637D01*
X35162623Y6033482D01*
X35280164Y5885183D01*
X35285240Y5879926D01*
X35429355Y5757275D01*
X35435353Y5753106D01*
X35600537Y5660789D01*
X35607250Y5657856D01*
X35787210Y5599384D01*
X35794358Y5597812D01*
X35892185Y5586147D01*
X35902706Y5588615D01*
X35905350Y5592149D01*
X35905350Y5597674D01*
X36108650Y5597674D01*
X36112347Y5587517D01*
X36116653Y5585031D01*
X36178239Y5589770D01*
X36185447Y5591041D01*
X36367701Y5641927D01*
X36374534Y5644578D01*
X36543428Y5729892D01*
X36549611Y5733816D01*
X36698720Y5850313D01*
X36704023Y5855363D01*
X36827664Y5998603D01*
X36831886Y6004588D01*
X36925354Y6169120D01*
X36928328Y6175800D01*
X36988059Y6355359D01*
X36989680Y6362493D01*
X37002907Y6467196D01*
X37000513Y6477735D01*
X36997068Y6480350D01*
X36121909Y6480350D01*
X36111752Y6476653D01*
X36108650Y6471281D01*
X36108650Y5597674D01*
X35905350Y5597674D01*
X35905350Y6467091D01*
X35901653Y6477248D01*
X35896281Y6480350D01*
X35022824Y6480350D01*
X35012667Y6476653D01*
X35010230Y6472432D01*
X31954500Y6472432D01*
X31954500Y6696829D01*
X35011151Y6696829D01*
X35013693Y6686320D01*
X35017315Y6683650D01*
X35892091Y6683650D01*
X35902248Y6687347D01*
X35905350Y6692719D01*
X35905350Y6696909D01*
X36108650Y6696909D01*
X36112347Y6686752D01*
X36117719Y6683650D01*
X36991024Y6683650D01*
X37001181Y6687347D01*
X37003523Y6691403D01*
X36995427Y6773976D01*
X36994001Y6781172D01*
X36939312Y6962312D01*
X36936524Y6969078D01*
X36847684Y7136161D01*
X36843639Y7142249D01*
X36724041Y7288891D01*
X36718878Y7294090D01*
X36573078Y7414706D01*
X36567016Y7418795D01*
X36400557Y7508799D01*
X36393813Y7511634D01*
X36213047Y7567590D01*
X36205880Y7569061D01*
X36121837Y7577894D01*
X36111348Y7575279D01*
X36108650Y7571565D01*
X36108650Y6696909D01*
X35905350Y6696909D01*
X35905350Y7566076D01*
X35901653Y7576233D01*
X35897516Y7578622D01*
X35821927Y7571743D01*
X35814728Y7570369D01*
X35633208Y7516945D01*
X35626421Y7514203D01*
X35458721Y7426532D01*
X35452603Y7422528D01*
X35305128Y7303956D01*
X35299903Y7298839D01*
X35178266Y7153878D01*
X35174132Y7147840D01*
X35082975Y6982025D01*
X35080088Y6975289D01*
X35022873Y6794925D01*
X35021351Y6787762D01*
X35011151Y6696829D01*
X31954500Y6696829D01*
X31954500Y7363434D01*
X31972093Y7411772D01*
X31976526Y7416608D01*
X32146806Y7586888D01*
X44335873Y7586888D01*
X44337147Y7582134D01*
X44393671Y7534027D01*
X44399686Y7529846D01*
X44573423Y7432749D01*
X44580136Y7429816D01*
X44769421Y7368314D01*
X44776569Y7366742D01*
X44974196Y7343176D01*
X44981528Y7343023D01*
X45179964Y7358292D01*
X45187173Y7359563D01*
X45378870Y7413085D01*
X45385703Y7415736D01*
X45563349Y7505471D01*
X45569532Y7509395D01*
X45658629Y7579005D01*
X45664357Y7588172D01*
X45663749Y7592496D01*
X45009377Y8246868D01*
X44999578Y8251437D01*
X44993587Y8249832D01*
X44340442Y7596687D01*
X44335873Y7586888D01*
X32146806Y7586888D01*
X32356996Y7797079D01*
X32368391Y7806431D01*
X32377327Y7812402D01*
X32383484Y7816516D01*
X32439734Y7900699D01*
X32454500Y7974933D01*
X32459486Y8000000D01*
X32455945Y8017804D01*
X32454500Y8032472D01*
X32454500Y8260684D01*
X35004600Y8260684D01*
X35005321Y8253363D01*
X35011997Y8219802D01*
X35017558Y8206377D01*
X35043014Y8168280D01*
X35053280Y8158014D01*
X35091377Y8132558D01*
X35104802Y8126997D01*
X35138363Y8120321D01*
X35145684Y8119600D01*
X35892091Y8119600D01*
X35902248Y8123297D01*
X35905350Y8128669D01*
X35905350Y8132859D01*
X36108650Y8132859D01*
X36112347Y8122702D01*
X36117719Y8119600D01*
X36868316Y8119600D01*
X36875637Y8120321D01*
X36909198Y8126997D01*
X36922623Y8132558D01*
X36960720Y8158014D01*
X36970986Y8168280D01*
X36996442Y8206377D01*
X37002003Y8219802D01*
X37008679Y8253363D01*
X37009400Y8260684D01*
X37009400Y8411094D01*
X43942919Y8411094D01*
X43959573Y8212769D01*
X43960895Y8205567D01*
X44015755Y8014247D01*
X44018451Y8007438D01*
X44109427Y7830420D01*
X44113393Y7824265D01*
X44179046Y7741430D01*
X44188255Y7735765D01*
X44192661Y7736416D01*
X44846868Y8390623D01*
X44851043Y8399578D01*
X45148563Y8399578D01*
X45150168Y8393587D01*
X45803417Y7740338D01*
X45813216Y7735769D01*
X45818066Y7737068D01*
X45861719Y7787640D01*
X45865943Y7793628D01*
X45964249Y7966678D01*
X45967229Y7973373D01*
X46030051Y8162220D01*
X46031674Y8169365D01*
X46056816Y8368384D01*
X46057109Y8372576D01*
X46057463Y8397901D01*
X46057287Y8402093D01*
X46037712Y8601734D01*
X46036286Y8608930D01*
X45978763Y8799458D01*
X45975975Y8806224D01*
X45882532Y8981964D01*
X45878487Y8988052D01*
X45820977Y9058567D01*
X45811693Y9064101D01*
X45807115Y9063360D01*
X45153132Y8409377D01*
X45148563Y8399578D01*
X44851043Y8399578D01*
X44851437Y8400422D01*
X44849832Y8406413D01*
X44196754Y9059491D01*
X44186955Y9064060D01*
X44182295Y9062812D01*
X44129814Y9000266D01*
X44125676Y8994223D01*
X44029796Y8819817D01*
X44026909Y8813081D01*
X43966730Y8623372D01*
X43965207Y8616207D01*
X43943022Y8418427D01*
X43942919Y8411094D01*
X37009400Y8411094D01*
X37009400Y9007091D01*
X37005703Y9017248D01*
X37000331Y9020350D01*
X36121909Y9020350D01*
X36111752Y9016653D01*
X36108650Y9011281D01*
X36108650Y8132859D01*
X35905350Y8132859D01*
X35905350Y9007091D01*
X35901653Y9017248D01*
X35896281Y9020350D01*
X35017859Y9020350D01*
X35007702Y9016653D01*
X35004600Y9011281D01*
X35004600Y8260684D01*
X32454500Y8260684D01*
X32454500Y9211703D01*
X44335850Y9211703D01*
X44336546Y9207209D01*
X44990623Y8553132D01*
X45000422Y8548563D01*
X45006413Y8550168D01*
X45659460Y9203215D01*
X45664029Y9213014D01*
X45662805Y9217582D01*
X45594173Y9274359D01*
X45588111Y9278448D01*
X45413027Y9373115D01*
X45406283Y9375950D01*
X45216149Y9434806D01*
X45208982Y9436277D01*
X45011038Y9457082D01*
X45003725Y9457133D01*
X44805504Y9439094D01*
X44798318Y9437723D01*
X44607387Y9381529D01*
X44600600Y9378787D01*
X44424210Y9286573D01*
X44418092Y9282569D01*
X44341449Y9220947D01*
X44335850Y9211703D01*
X32454500Y9211703D01*
X32454500Y9236909D01*
X35004600Y9236909D01*
X35008297Y9226752D01*
X35013669Y9223650D01*
X35892091Y9223650D01*
X35902248Y9227347D01*
X35905350Y9232719D01*
X35905350Y9236909D01*
X36108650Y9236909D01*
X36112347Y9226752D01*
X36117719Y9223650D01*
X36996141Y9223650D01*
X37006298Y9227347D01*
X37009400Y9232719D01*
X37009400Y9983316D01*
X37008679Y9990637D01*
X37002003Y10024198D01*
X36996442Y10037623D01*
X36970986Y10075720D01*
X36960720Y10085986D01*
X36922623Y10111442D01*
X36909198Y10117003D01*
X36875637Y10123679D01*
X36868316Y10124400D01*
X36121909Y10124400D01*
X36111752Y10120703D01*
X36108650Y10115331D01*
X36108650Y9236909D01*
X35905350Y9236909D01*
X35905350Y10111141D01*
X35901653Y10121298D01*
X35896281Y10124400D01*
X35145684Y10124400D01*
X35138363Y10123679D01*
X35104802Y10117003D01*
X35091377Y10111442D01*
X35053280Y10085986D01*
X35043014Y10075720D01*
X35017558Y10037623D01*
X35011997Y10024198D01*
X35005321Y9990637D01*
X35004600Y9983316D01*
X35004600Y9236909D01*
X32454500Y9236909D01*
X32454500Y11127117D01*
X32472093Y11175455D01*
X32516642Y11201175D01*
X32567300Y11192242D01*
X32596584Y11161491D01*
X32619916Y11116092D01*
X32742083Y10961956D01*
X32744877Y10959578D01*
X32744878Y10959577D01*
X32779691Y10929949D01*
X32891862Y10834484D01*
X32895063Y10832695D01*
X32895066Y10832693D01*
X32955949Y10798667D01*
X33063547Y10738533D01*
X33067044Y10737397D01*
X33067048Y10737395D01*
X33159615Y10707319D01*
X33250600Y10677756D01*
X33357984Y10664951D01*
X33442237Y10654904D01*
X33442239Y10654904D01*
X33445895Y10654468D01*
X33641994Y10669557D01*
X33817582Y10718582D01*
X33827883Y10721458D01*
X33827885Y10721459D01*
X33831428Y10722448D01*
X33976350Y10795653D01*
X34003697Y10809467D01*
X34003698Y10809468D01*
X34006981Y10811126D01*
X34010204Y10813644D01*
X37012629Y10813644D01*
X37014174Y10807877D01*
X37019193Y10802987D01*
X37024528Y10798667D01*
X37194906Y10684824D01*
X37200930Y10681553D01*
X37389197Y10600667D01*
X37395723Y10598547D01*
X37595574Y10553325D01*
X37602384Y10552429D01*
X37807126Y10544384D01*
X37813980Y10544743D01*
X38016760Y10574145D01*
X38023445Y10575750D01*
X38217468Y10641612D01*
X38223736Y10644403D01*
X38402514Y10744523D01*
X38408174Y10748413D01*
X38479684Y10807887D01*
X38483042Y10813644D01*
X51512629Y10813644D01*
X51514174Y10807877D01*
X51519193Y10802987D01*
X51524528Y10798667D01*
X51694906Y10684824D01*
X51700930Y10681553D01*
X51889197Y10600667D01*
X51895723Y10598547D01*
X52095574Y10553325D01*
X52102384Y10552429D01*
X52307126Y10544384D01*
X52313980Y10544743D01*
X52516760Y10574145D01*
X52523445Y10575750D01*
X52717468Y10641612D01*
X52723736Y10644403D01*
X52902514Y10744523D01*
X52908174Y10748413D01*
X52979684Y10807887D01*
X52985130Y10817225D01*
X52984323Y10821922D01*
X52259377Y11546868D01*
X52249578Y11551437D01*
X52243587Y11549832D01*
X51517198Y10823443D01*
X51512629Y10813644D01*
X38483042Y10813644D01*
X38485130Y10817225D01*
X38484323Y10821922D01*
X37759377Y11546868D01*
X37749578Y11551437D01*
X37743587Y11549832D01*
X37017198Y10823443D01*
X37012629Y10813644D01*
X34010204Y10813644D01*
X34099595Y10883484D01*
X34159067Y10929949D01*
X34161966Y10932214D01*
X34290480Y11081099D01*
X34305344Y11107265D01*
X34385810Y11248909D01*
X34385812Y11248912D01*
X34387628Y11252110D01*
X34429686Y11378541D01*
X34448548Y11435240D01*
X34448549Y11435243D01*
X34449710Y11438734D01*
X34474360Y11633862D01*
X34474753Y11662000D01*
X34473963Y11670055D01*
X34468394Y11726859D01*
X36593285Y11726859D01*
X36606687Y11522392D01*
X36607761Y11515612D01*
X36658197Y11317016D01*
X36660491Y11310539D01*
X36746274Y11124462D01*
X36749704Y11118521D01*
X36855949Y10968186D01*
X36864831Y10962025D01*
X36868618Y10962373D01*
X37596868Y11690623D01*
X37601043Y11699578D01*
X37898563Y11699578D01*
X37900168Y11693587D01*
X38624257Y10969498D01*
X38634056Y10964929D01*
X38638658Y10966162D01*
X38701587Y11041826D01*
X38705477Y11047486D01*
X38805597Y11226264D01*
X38808388Y11232532D01*
X38874250Y11426555D01*
X38875855Y11433240D01*
X38905434Y11637245D01*
X38905809Y11641641D01*
X38907279Y11697783D01*
X38907135Y11702202D01*
X38904869Y11726859D01*
X51093285Y11726859D01*
X51106687Y11522392D01*
X51107761Y11515612D01*
X51158197Y11317016D01*
X51160491Y11310539D01*
X51246274Y11124462D01*
X51249704Y11118521D01*
X51355949Y10968186D01*
X51364831Y10962025D01*
X51368618Y10962373D01*
X52096868Y11690623D01*
X52101043Y11699578D01*
X52398563Y11699578D01*
X52400168Y11693587D01*
X53124257Y10969498D01*
X53134056Y10964929D01*
X53138658Y10966162D01*
X53201587Y11041826D01*
X53205477Y11047486D01*
X53305597Y11226264D01*
X53308388Y11232532D01*
X53374250Y11426555D01*
X53375855Y11433240D01*
X53405434Y11637245D01*
X53405809Y11641641D01*
X53407279Y11697783D01*
X53407135Y11702202D01*
X53388272Y11907475D01*
X53387021Y11914227D01*
X53331402Y12111436D01*
X53328943Y12117843D01*
X53238317Y12301614D01*
X53234727Y12307472D01*
X53142840Y12430524D01*
X53133799Y12436452D01*
X53129725Y12435970D01*
X52403132Y11709377D01*
X52398563Y11699578D01*
X52101043Y11699578D01*
X52101437Y11700422D01*
X52099832Y11706413D01*
X51375391Y12430854D01*
X51365592Y12435423D01*
X51361322Y12434279D01*
X51281508Y12333036D01*
X51277771Y12327281D01*
X51182363Y12145941D01*
X51179740Y12139609D01*
X51118975Y11943913D01*
X51117549Y11937203D01*
X51093465Y11733715D01*
X51093285Y11726859D01*
X38904869Y11726859D01*
X38888272Y11907475D01*
X38887021Y11914227D01*
X38831402Y12111436D01*
X38828943Y12117843D01*
X38738317Y12301614D01*
X38734727Y12307472D01*
X38642840Y12430524D01*
X38633799Y12436452D01*
X38629725Y12435970D01*
X37903132Y11709377D01*
X37898563Y11699578D01*
X37601043Y11699578D01*
X37601437Y11700422D01*
X37599832Y11706413D01*
X36875391Y12430854D01*
X36865592Y12435423D01*
X36861322Y12434279D01*
X36781508Y12333036D01*
X36777771Y12327281D01*
X36682363Y12145941D01*
X36679740Y12139609D01*
X36618975Y11943913D01*
X36617549Y11937203D01*
X36593465Y11733715D01*
X36593285Y11726859D01*
X34468394Y11726859D01*
X34455921Y11854073D01*
X34455920Y11854078D01*
X34455561Y11857740D01*
X34398714Y12046025D01*
X34306379Y12219682D01*
X34182072Y12372097D01*
X34030528Y12497465D01*
X33872133Y12583109D01*
X37014681Y12583109D01*
X37015683Y12578072D01*
X37740623Y11853132D01*
X37750422Y11848563D01*
X37756413Y11850168D01*
X38481478Y12575233D01*
X38485150Y12583109D01*
X51514681Y12583109D01*
X51515683Y12578072D01*
X52240623Y11853132D01*
X52250422Y11848563D01*
X52256413Y11850168D01*
X52981478Y12575233D01*
X52986047Y12585032D01*
X52984615Y12590379D01*
X52957077Y12615834D01*
X52951627Y12620016D01*
X52778332Y12729358D01*
X52772218Y12732472D01*
X52581910Y12808398D01*
X52575315Y12810352D01*
X52374358Y12850324D01*
X52367529Y12851042D01*
X52162639Y12853724D01*
X52155801Y12853186D01*
X51953851Y12818485D01*
X51947229Y12816710D01*
X51754988Y12745788D01*
X51748790Y12742831D01*
X51572704Y12638072D01*
X51567140Y12634030D01*
X51519880Y12592585D01*
X51514681Y12583109D01*
X38485150Y12583109D01*
X38486047Y12585032D01*
X38484615Y12590379D01*
X38457077Y12615834D01*
X38451627Y12620016D01*
X38278332Y12729358D01*
X38272218Y12732472D01*
X38081910Y12808398D01*
X38075315Y12810352D01*
X37874358Y12850324D01*
X37867529Y12851042D01*
X37662639Y12853724D01*
X37655801Y12853186D01*
X37453851Y12818485D01*
X37447229Y12816710D01*
X37254988Y12745788D01*
X37248790Y12742831D01*
X37072704Y12638072D01*
X37067140Y12634030D01*
X37019880Y12592585D01*
X37014681Y12583109D01*
X33872133Y12583109D01*
X33857520Y12591010D01*
X33669637Y12649170D01*
X33507508Y12666210D01*
X33477690Y12669344D01*
X33477689Y12669344D01*
X33474035Y12669728D01*
X33435378Y12666210D01*
X33281824Y12652236D01*
X33281823Y12652236D01*
X33278166Y12651903D01*
X33274641Y12650866D01*
X33274638Y12650865D01*
X33112950Y12603277D01*
X33089489Y12596372D01*
X32915192Y12505252D01*
X32761912Y12382012D01*
X32635489Y12231347D01*
X32633718Y12228125D01*
X32633717Y12228124D01*
X32595598Y12158785D01*
X32556894Y12124902D01*
X32505466Y12123825D01*
X32465377Y12156057D01*
X32454500Y12195013D01*
X32454500Y12896528D01*
X32455945Y12911199D01*
X32458041Y12921736D01*
X32459486Y12929000D01*
X32449689Y12978256D01*
X32447132Y12991110D01*
X32441179Y13021038D01*
X32441179Y13021039D01*
X32439734Y13028301D01*
X32434853Y13035606D01*
X32397684Y13091234D01*
X32397681Y13091237D01*
X32383484Y13112484D01*
X32368394Y13122567D01*
X32356999Y13131919D01*
X31833498Y13655420D01*
X31811758Y13702040D01*
X31821286Y13745738D01*
X31845808Y13788906D01*
X31845809Y13788907D01*
X31847628Y13792110D01*
X31909710Y13978734D01*
X31934360Y14173862D01*
X31934753Y14202000D01*
X31934275Y14206874D01*
X31915921Y14394073D01*
X31915920Y14394078D01*
X31915561Y14397740D01*
X31858714Y14586025D01*
X31766379Y14759682D01*
X31642072Y14912097D01*
X31490528Y15037465D01*
X31317520Y15131010D01*
X31129637Y15189170D01*
X30986832Y15204179D01*
X30937690Y15209344D01*
X30937689Y15209344D01*
X30934035Y15209728D01*
X30836101Y15200816D01*
X30741824Y15192236D01*
X30741823Y15192236D01*
X30738166Y15191903D01*
X30734641Y15190866D01*
X30734638Y15190865D01*
X30553019Y15137411D01*
X30549489Y15136372D01*
X30375192Y15045252D01*
X30221912Y14922012D01*
X30095489Y14771347D01*
X30093718Y14768125D01*
X30093717Y14768124D01*
X30016986Y14628550D01*
X29978282Y14594667D01*
X29926854Y14593590D01*
X29897914Y14611604D01*
X29347285Y15162234D01*
X28795415Y15714104D01*
X28773675Y15760724D01*
X28786989Y15810411D01*
X28814683Y15834400D01*
X28923697Y15889467D01*
X28923698Y15889468D01*
X28926981Y15891126D01*
X29081966Y16012214D01*
X29210480Y16161099D01*
X29235503Y16205148D01*
X29305810Y16328909D01*
X29305812Y16328912D01*
X29307628Y16332110D01*
X29352640Y16467421D01*
X29368548Y16515240D01*
X29368549Y16515243D01*
X29369710Y16518734D01*
X29394360Y16713862D01*
X29394579Y16729546D01*
X29394724Y16739901D01*
X29394724Y16739907D01*
X29394753Y16742000D01*
X29394275Y16746879D01*
X29407064Y16796702D01*
X29448888Y16826649D01*
X29500176Y16822705D01*
X29522289Y16807394D01*
X29546963Y16782720D01*
X29568703Y16736100D01*
X29568989Y16729546D01*
X29568989Y16317382D01*
X29567544Y16302714D01*
X29564003Y16284910D01*
X29565448Y16277645D01*
X29578801Y16210517D01*
X29583755Y16185609D01*
X29625805Y16122676D01*
X29625808Y16122673D01*
X29640005Y16101426D01*
X29646162Y16097312D01*
X29655095Y16091343D01*
X29666490Y16081991D01*
X30266989Y15481493D01*
X30276341Y15470098D01*
X30286426Y15455005D01*
X30292583Y15450891D01*
X30364450Y15402870D01*
X30364451Y15402869D01*
X30370609Y15398755D01*
X30377873Y15397310D01*
X30444836Y15383990D01*
X30444841Y15383989D01*
X30444844Y15383989D01*
X30444852Y15383988D01*
X30469910Y15379004D01*
X30477175Y15380449D01*
X30487708Y15382544D01*
X30502378Y15383989D01*
X31893945Y15383989D01*
X31942283Y15366396D01*
X31947119Y15361963D01*
X32442074Y14867008D01*
X32463814Y14820388D01*
X32464100Y14813834D01*
X32464101Y14074694D01*
X32464101Y13336944D01*
X32472972Y13292342D01*
X32506766Y13241766D01*
X32512923Y13237652D01*
X32551183Y13212087D01*
X32551184Y13212086D01*
X32557342Y13207972D01*
X32564606Y13206527D01*
X32585072Y13202456D01*
X32601943Y13199100D01*
X33466882Y13199100D01*
X34332056Y13199101D01*
X34376658Y13207972D01*
X34427234Y13241766D01*
X34432422Y13249530D01*
X34456913Y13286183D01*
X34456914Y13286184D01*
X34461028Y13292342D01*
X34462551Y13300000D01*
X34469179Y13333318D01*
X34469179Y13333319D01*
X34469900Y13336943D01*
X34469899Y15067056D01*
X34461028Y15111658D01*
X34427234Y15162234D01*
X34388631Y15188028D01*
X34382817Y15191913D01*
X34382816Y15191914D01*
X34376658Y15196028D01*
X34332057Y15204900D01*
X34172095Y15204900D01*
X32855167Y15204899D01*
X32806829Y15222492D01*
X32801993Y15226925D01*
X32428918Y15600000D01*
X47388028Y15600000D01*
X47408191Y15472694D01*
X47410878Y15467421D01*
X47455193Y15380449D01*
X47466708Y15357849D01*
X47557849Y15266708D01*
X47672694Y15208191D01*
X47678541Y15207265D01*
X47792790Y15189170D01*
X47800000Y15188028D01*
X47807211Y15189170D01*
X47921459Y15207265D01*
X47927306Y15208191D01*
X48042151Y15266708D01*
X48133292Y15357849D01*
X48144808Y15380449D01*
X48189122Y15467421D01*
X48191809Y15472694D01*
X48206928Y15568152D01*
X48228028Y15609562D01*
X48671300Y16052834D01*
X48675303Y16056290D01*
X48679479Y16058331D01*
X48712912Y16094372D01*
X48714869Y16096403D01*
X48728694Y16110228D01*
X48730653Y16113083D01*
X48732641Y16115476D01*
X48735344Y16118554D01*
X48749726Y16134057D01*
X48749728Y16134060D01*
X48754446Y16139146D01*
X48759568Y16151985D01*
X48767399Y16166650D01*
X48771285Y16172315D01*
X48775213Y16178041D01*
X48781646Y16205148D01*
X48784964Y16215639D01*
X48795293Y16241530D01*
X48795900Y16247721D01*
X48795900Y16256410D01*
X48797932Y16273773D01*
X48799063Y16278540D01*
X48800666Y16285295D01*
X48799730Y16292174D01*
X48799964Y16296957D01*
X48821900Y16346457D01*
X48833292Y16357849D01*
X48841306Y16373576D01*
X48867320Y16424632D01*
X48891809Y16472694D01*
X48911972Y16600000D01*
X48891809Y16727306D01*
X48833292Y16842151D01*
X48742151Y16933292D01*
X48733422Y16937740D01*
X48632579Y16989122D01*
X48632580Y16989122D01*
X48627306Y16991809D01*
X48560948Y17002319D01*
X48505847Y17011046D01*
X48500000Y17011972D01*
X48494153Y17011046D01*
X48439052Y17002319D01*
X48372694Y16991809D01*
X48367420Y16989122D01*
X48367421Y16989122D01*
X48266579Y16937740D01*
X48257849Y16933292D01*
X48166708Y16842151D01*
X48108191Y16727306D01*
X48088028Y16600000D01*
X48108191Y16472694D01*
X48110878Y16467421D01*
X48110879Y16467418D01*
X48132680Y16424632D01*
X48138950Y16373576D01*
X48118851Y16337316D01*
X47960986Y16179452D01*
X47809561Y16028027D01*
X47768151Y16006928D01*
X47696735Y15995617D01*
X47672694Y15991809D01*
X47557849Y15933292D01*
X47466708Y15842151D01*
X47464020Y15836875D01*
X47464019Y15836874D01*
X47448738Y15806883D01*
X47408191Y15727306D01*
X47388028Y15600000D01*
X32428918Y15600000D01*
X32233430Y15795488D01*
X32224078Y15806883D01*
X32218109Y15815816D01*
X32213995Y15821973D01*
X32192748Y15836170D01*
X32192745Y15836173D01*
X32129812Y15878223D01*
X32122550Y15879667D01*
X32122549Y15879668D01*
X32037776Y15896530D01*
X32030511Y15897975D01*
X32012707Y15894434D01*
X31998039Y15892989D01*
X31683305Y15892989D01*
X31634967Y15910582D01*
X31609247Y15955131D01*
X31618180Y16005789D01*
X31626379Y16017326D01*
X31706569Y16110228D01*
X31750480Y16161099D01*
X31775503Y16205148D01*
X31845810Y16328909D01*
X31845812Y16328912D01*
X31847628Y16332110D01*
X31892640Y16467421D01*
X31908548Y16515240D01*
X31908549Y16515243D01*
X31909710Y16518734D01*
X31934360Y16713862D01*
X31934579Y16729546D01*
X31934724Y16739901D01*
X31934724Y16739907D01*
X31934753Y16742000D01*
X31934175Y16747900D01*
X31915921Y16934073D01*
X31915920Y16934078D01*
X31915561Y16937740D01*
X31858714Y17126025D01*
X31819656Y17199482D01*
X31812496Y17250421D01*
X31832879Y17287961D01*
X32151975Y17607057D01*
X32464100Y17607057D01*
X32464101Y15876944D01*
X32472972Y15832342D01*
X32506766Y15781766D01*
X32512923Y15777652D01*
X32551183Y15752087D01*
X32551184Y15752086D01*
X32557342Y15747972D01*
X32564606Y15746527D01*
X32591492Y15741179D01*
X32601943Y15739100D01*
X33466882Y15739100D01*
X34332056Y15739101D01*
X34376658Y15747972D01*
X34427234Y15781766D01*
X34461028Y15832342D01*
X34465814Y15856404D01*
X34469179Y15873318D01*
X34469179Y15873319D01*
X34469900Y15876943D01*
X34469899Y17607056D01*
X34461028Y17651658D01*
X34427234Y17702234D01*
X34394219Y17724294D01*
X34382817Y17731913D01*
X34382816Y17731914D01*
X34376658Y17736028D01*
X34332057Y17744900D01*
X33467118Y17744900D01*
X32601944Y17744899D01*
X32557342Y17736028D01*
X32506766Y17702234D01*
X32502652Y17696077D01*
X32477109Y17657849D01*
X32472972Y17651658D01*
X32464100Y17607057D01*
X32151975Y17607057D01*
X32568391Y18023474D01*
X32615011Y18045214D01*
X32621565Y18045500D01*
X36863434Y18045500D01*
X36911772Y18027907D01*
X36916608Y18023474D01*
X37168051Y17772031D01*
X37189791Y17725411D01*
X37189152Y17707099D01*
X37188028Y17700000D01*
X37188954Y17694153D01*
X37196268Y17647976D01*
X37208191Y17572694D01*
X37266708Y17457849D01*
X37357849Y17366708D01*
X37472694Y17308191D01*
X37600000Y17288028D01*
X37727306Y17308191D01*
X37842151Y17366708D01*
X37933292Y17457849D01*
X37991809Y17572694D01*
X38003732Y17647976D01*
X38011046Y17694153D01*
X38011972Y17700000D01*
X37991809Y17827306D01*
X37933292Y17942151D01*
X37842151Y18033292D01*
X37727306Y18091809D01*
X37600000Y18111972D01*
X37594153Y18111046D01*
X37594152Y18111046D01*
X37592901Y18110848D01*
X37591883Y18111046D01*
X37588237Y18111046D01*
X37588237Y18111755D01*
X37542407Y18120667D01*
X37527969Y18131949D01*
X37202919Y18456999D01*
X37193567Y18468394D01*
X37187598Y18477327D01*
X37183484Y18483484D01*
X37162237Y18497681D01*
X37162234Y18497684D01*
X37099301Y18539734D01*
X37092039Y18541178D01*
X37092038Y18541179D01*
X37007265Y18558041D01*
X37000000Y18559486D01*
X36982196Y18555945D01*
X36967528Y18554500D01*
X32517472Y18554500D01*
X32502804Y18555945D01*
X32485000Y18559486D01*
X32477735Y18558041D01*
X32392962Y18541179D01*
X32392961Y18541178D01*
X32385699Y18539734D01*
X32322767Y18497684D01*
X32322766Y18497683D01*
X32301516Y18483484D01*
X32297402Y18477327D01*
X32291431Y18468391D01*
X32282079Y18456996D01*
X31473059Y17647976D01*
X31426439Y17626236D01*
X31384118Y17635001D01*
X31320760Y17669259D01*
X31320753Y17669262D01*
X31317520Y17671010D01*
X31129637Y17729170D01*
X30986832Y17744179D01*
X30937690Y17749344D01*
X30937689Y17749344D01*
X30934035Y17749728D01*
X30836101Y17740816D01*
X30741824Y17732236D01*
X30741823Y17732236D01*
X30738166Y17731903D01*
X30734641Y17730866D01*
X30734638Y17730865D01*
X30616440Y17696077D01*
X30549489Y17676372D01*
X30375192Y17585252D01*
X30325115Y17544989D01*
X30278196Y17507265D01*
X30221912Y17462012D01*
X30095489Y17311347D01*
X30016986Y17168549D01*
X29978284Y17134667D01*
X29926855Y17133590D01*
X29897915Y17151604D01*
X28592520Y18456999D01*
X28583168Y18468394D01*
X28577199Y18477327D01*
X28573085Y18483484D01*
X28551838Y18497681D01*
X28551835Y18497684D01*
X28488902Y18539734D01*
X28481640Y18541178D01*
X28481639Y18541179D01*
X28396866Y18558041D01*
X28389601Y18559486D01*
X28371797Y18555945D01*
X28357129Y18554500D01*
X19358273Y18554500D01*
X19309935Y18572093D01*
X19303138Y18579675D01*
X19303052Y18579589D01*
X19297813Y18584828D01*
X19293699Y18590985D01*
X19272452Y18605182D01*
X19272449Y18605185D01*
X19209516Y18647235D01*
X19202254Y18648679D01*
X19202253Y18648680D01*
X19117480Y18665542D01*
X19110215Y18666987D01*
X19092411Y18663446D01*
X19077743Y18662001D01*
X18539973Y18662001D01*
X18525305Y18663446D01*
X18507501Y18666987D01*
X18500236Y18665542D01*
X18415463Y18648680D01*
X18415462Y18648679D01*
X18408200Y18647235D01*
X18402042Y18643121D01*
X18402041Y18643120D01*
X18345268Y18605185D01*
X18345267Y18605184D01*
X18330176Y18595101D01*
X18330174Y18595099D01*
X18324017Y18590985D01*
X18316460Y18579675D01*
X18313932Y18575892D01*
X18304580Y18564498D01*
X18143001Y18402919D01*
X18131606Y18393567D01*
X18116516Y18383484D01*
X18102319Y18362237D01*
X18102316Y18362234D01*
X18060266Y18299301D01*
X18040514Y18200000D01*
X18041959Y18192736D01*
X18044055Y18182199D01*
X18045500Y18167528D01*
X18045500Y17336566D01*
X18027907Y17288228D01*
X18023474Y17283392D01*
X14243001Y13502919D01*
X14231606Y13493567D01*
X14216516Y13483484D01*
X14202319Y13462237D01*
X14202316Y13462234D01*
X14166314Y13408352D01*
X14160266Y13399301D01*
X14158821Y13392038D01*
X14158821Y13392037D01*
X14147863Y13336945D01*
X14142529Y13310130D01*
X14140514Y13300000D01*
X14143263Y13286182D01*
X14144055Y13282199D01*
X14145500Y13267528D01*
X14145500Y13224036D01*
X14127907Y13175698D01*
X14104441Y13157033D01*
X14063129Y13135983D01*
X14063126Y13135981D01*
X14057849Y13133292D01*
X13966708Y13042151D01*
X13908191Y12927306D01*
X13907265Y12921459D01*
X13895631Y12848001D01*
X13888028Y12800000D01*
X13888954Y12794153D01*
X13890105Y12786886D01*
X13908191Y12672694D01*
X13933283Y12623448D01*
X13954389Y12582027D01*
X13966708Y12557849D01*
X14057849Y12466708D01*
X14063125Y12464020D01*
X14063126Y12464019D01*
X14097821Y12446341D01*
X14172694Y12408191D01*
X14300000Y12388028D01*
X14427306Y12408191D01*
X14483599Y12436874D01*
X14536160Y12463655D01*
X14587216Y12469924D01*
X14630357Y12441908D01*
X14645500Y12396651D01*
X14645500Y11936566D01*
X14627907Y11888228D01*
X14623474Y11883391D01*
X14316607Y11576525D01*
X14269987Y11554786D01*
X14263433Y11554500D01*
X13936566Y11554500D01*
X13888228Y11572093D01*
X13883392Y11576526D01*
X13331949Y12127969D01*
X13310209Y12174589D01*
X13310848Y12192901D01*
X13311046Y12194152D01*
X13311046Y12194153D01*
X13311972Y12200000D01*
X13291809Y12327306D01*
X13256476Y12396651D01*
X13235981Y12436874D01*
X13235980Y12436875D01*
X13233292Y12442151D01*
X13142151Y12533292D01*
X13114171Y12547549D01*
X13046504Y12582027D01*
X13027306Y12591809D01*
X12954899Y12603277D01*
X12905847Y12611046D01*
X12900000Y12611972D01*
X12894153Y12611046D01*
X12845101Y12603277D01*
X12772694Y12591809D01*
X12753496Y12582027D01*
X12685830Y12547549D01*
X12657849Y12533292D01*
X12566708Y12442151D01*
X12564020Y12436875D01*
X12564019Y12436874D01*
X12543524Y12396651D01*
X12508191Y12327306D01*
X12488028Y12200000D01*
X12508191Y12072694D01*
X12520127Y12049269D01*
X12560515Y11970002D01*
X12566784Y11918946D01*
X12538767Y11875805D01*
X12527653Y11868859D01*
X12457849Y11833292D01*
X12366708Y11742151D01*
X12364020Y11736875D01*
X12364019Y11736874D01*
X12358916Y11726859D01*
X12308191Y11627306D01*
X12307265Y11621459D01*
X12295921Y11549832D01*
X12288028Y11500000D01*
X12308191Y11372694D01*
X12334216Y11321617D01*
X12351474Y11287748D01*
X12366708Y11257849D01*
X12457849Y11166708D01*
X12463125Y11164020D01*
X12463126Y11164019D01*
X12504376Y11143001D01*
X12572694Y11108191D01*
X12700000Y11088028D01*
X12705847Y11088954D01*
X12705848Y11088954D01*
X12707099Y11089152D01*
X12708117Y11088954D01*
X12711763Y11088954D01*
X12711763Y11088245D01*
X12757593Y11079333D01*
X12772031Y11068051D01*
X13550590Y10289493D01*
X13559942Y10278098D01*
X13570027Y10263005D01*
X13576184Y10258891D01*
X13591277Y10248806D01*
X13591278Y10248805D01*
X13639741Y10216423D01*
X13654210Y10206755D01*
X13661472Y10205311D01*
X13661473Y10205310D01*
X13746246Y10188448D01*
X13753511Y10187003D01*
X13771315Y10190544D01*
X13785983Y10191989D01*
X17014017Y10191989D01*
X17028685Y10190544D01*
X17046489Y10187003D01*
X17053754Y10188448D01*
X17138527Y10205310D01*
X17138528Y10205311D01*
X17145790Y10206755D01*
X17208723Y10248805D01*
X17208726Y10248808D01*
X17229973Y10263005D01*
X17240054Y10278092D01*
X17249405Y10289487D01*
X17305707Y10345789D01*
X17383391Y10423474D01*
X17430012Y10445214D01*
X17436566Y10445500D01*
X20031834Y10445500D01*
X20080172Y10427907D01*
X20085008Y10423474D01*
X20106989Y10401493D01*
X20116341Y10390098D01*
X20126426Y10375005D01*
X20132583Y10370891D01*
X20147676Y10360806D01*
X20147677Y10360805D01*
X20197812Y10327306D01*
X20210609Y10318755D01*
X20217871Y10317311D01*
X20217872Y10317310D01*
X20302645Y10300448D01*
X20309910Y10299003D01*
X20327714Y10302544D01*
X20342382Y10303989D01*
X22904945Y10303989D01*
X22953283Y10286396D01*
X22958119Y10281963D01*
X23197081Y10043001D01*
X23206433Y10031606D01*
X23216516Y10016516D01*
X23237763Y10002319D01*
X23237766Y10002316D01*
X23300699Y9960266D01*
X23307961Y9958822D01*
X23307962Y9958821D01*
X23392735Y9941959D01*
X23400000Y9940514D01*
X23417804Y9944055D01*
X23432472Y9945500D01*
X24047909Y9945500D01*
X24096247Y9927907D01*
X24101083Y9923474D01*
X24157849Y9866708D01*
X24272694Y9808191D01*
X24400000Y9788028D01*
X24527306Y9808191D01*
X24642151Y9866708D01*
X24733292Y9957849D01*
X24749999Y9990637D01*
X24773939Y10037623D01*
X24791809Y10072694D01*
X24811972Y10200000D01*
X24791809Y10327306D01*
X24756677Y10396255D01*
X24735981Y10436874D01*
X24735980Y10436875D01*
X24733292Y10442151D01*
X24642151Y10533292D01*
X24619678Y10544743D01*
X24532579Y10589122D01*
X24532580Y10589122D01*
X24527306Y10591809D01*
X24400000Y10611972D01*
X24272694Y10591809D01*
X24267420Y10589122D01*
X24267421Y10589122D01*
X24180323Y10544743D01*
X24157849Y10533292D01*
X24101083Y10476526D01*
X24054463Y10454786D01*
X24047909Y10454500D01*
X23536566Y10454500D01*
X23488228Y10472093D01*
X23483392Y10476526D01*
X23419662Y10540256D01*
X23397922Y10586876D01*
X23411236Y10636563D01*
X23453373Y10666068D01*
X23467065Y10668408D01*
X23472913Y10668858D01*
X23481994Y10669557D01*
X23657582Y10718582D01*
X23667883Y10721458D01*
X23667885Y10721459D01*
X23671428Y10722448D01*
X23816350Y10795653D01*
X23843697Y10809467D01*
X23843698Y10809468D01*
X23846981Y10811126D01*
X23939595Y10883484D01*
X23999067Y10929949D01*
X24001966Y10932214D01*
X24130480Y11081099D01*
X24145344Y11107265D01*
X24225810Y11248909D01*
X24225812Y11248912D01*
X24227628Y11252110D01*
X24259634Y11348323D01*
X24291585Y11388636D01*
X24341975Y11398979D01*
X24387224Y11374513D01*
X24406189Y11324586D01*
X24406189Y11241401D01*
X24405802Y11236134D01*
X24404292Y11231736D01*
X24405775Y11192242D01*
X24406136Y11182625D01*
X24406189Y11179803D01*
X24406189Y11160238D01*
X24406822Y11156837D01*
X24407109Y11153729D01*
X24407374Y11149643D01*
X24407745Y11139776D01*
X24408428Y11121581D01*
X24413570Y11109613D01*
X24413881Y11108889D01*
X24418717Y11092973D01*
X24421246Y11079393D01*
X24432939Y11060423D01*
X24435863Y11055680D01*
X24440941Y11045905D01*
X24449846Y11025177D01*
X24449848Y11025174D01*
X24451941Y11020302D01*
X24455889Y11015495D01*
X24462033Y11009351D01*
X24472874Y10995637D01*
X24479088Y10985556D01*
X24484611Y10981356D01*
X24503173Y10967241D01*
X24510828Y10960556D01*
X25125595Y10345789D01*
X25129051Y10341786D01*
X25131092Y10337610D01*
X25136180Y10332891D01*
X25136180Y10332890D01*
X25167132Y10304178D01*
X25169164Y10302220D01*
X25182989Y10288395D01*
X25185844Y10286436D01*
X25188237Y10284448D01*
X25191315Y10281745D01*
X25206818Y10267363D01*
X25206821Y10267361D01*
X25211907Y10262643D01*
X25224746Y10257521D01*
X25239411Y10249690D01*
X25250802Y10241876D01*
X25271391Y10236990D01*
X25277909Y10235443D01*
X25288400Y10232125D01*
X25314291Y10221796D01*
X25320482Y10221189D01*
X25329171Y10221189D01*
X25346534Y10219157D01*
X25351301Y10218026D01*
X25358056Y10216423D01*
X25364934Y10217359D01*
X25364935Y10217359D01*
X25388030Y10220502D01*
X25398170Y10221189D01*
X26519201Y10221189D01*
X26567539Y10203596D01*
X26572375Y10199163D01*
X29482074Y7289464D01*
X29503814Y7242844D01*
X29504100Y7236290D01*
X29504100Y4302941D01*
X29486507Y4254603D01*
X29467750Y4239683D01*
X29467913Y4239459D01*
X29463126Y4235981D01*
X29457849Y4233292D01*
X29366708Y4142151D01*
X29308191Y4027306D01*
X29307265Y4021459D01*
X29291103Y3919412D01*
X29288028Y3900000D01*
X29308191Y3772694D01*
X29366708Y3657849D01*
X29457849Y3566708D01*
X29463125Y3564020D01*
X29463126Y3564019D01*
X29500104Y3545178D01*
X29572694Y3508191D01*
X29700000Y3488028D01*
X29827306Y3508191D01*
X29899896Y3545178D01*
X29936874Y3564019D01*
X29936875Y3564020D01*
X29942151Y3566708D01*
X29957080Y3581637D01*
X30003700Y3603377D01*
X30053387Y3590063D01*
X30068331Y3574217D01*
X30068693Y3574545D01*
X30073358Y3569400D01*
X30076999Y3563493D01*
X30082522Y3559293D01*
X30101084Y3545178D01*
X30108739Y3538493D01*
X30466458Y3180774D01*
X30488198Y3134154D01*
X30474884Y3084467D01*
X30432747Y3054962D01*
X30413284Y3052400D01*
X30336012Y3052400D01*
X30331574Y3052137D01*
X30315204Y3050189D01*
X30304444Y3047232D01*
X30221500Y3010391D01*
X30210253Y3002660D01*
X30147054Y2939351D01*
X30139341Y2928086D01*
X30102652Y2845096D01*
X30099709Y2834303D01*
X30097853Y2818388D01*
X30097600Y2814038D01*
X30097600Y1614909D01*
X30101297Y1604752D01*
X30106669Y1601650D01*
X30889141Y1601650D01*
X30899298Y1605347D01*
X30902400Y1610719D01*
X30902400Y2563285D01*
X30919993Y2611623D01*
X30964542Y2637343D01*
X31015200Y2628410D01*
X31030774Y2616459D01*
X31075074Y2572159D01*
X31096814Y2525539D01*
X31097100Y2518985D01*
X31097101Y1075200D01*
X31079508Y1026862D01*
X31034959Y1001142D01*
X31021901Y1000000D01*
X30977600Y1000000D01*
X30929262Y1017593D01*
X30903542Y1062142D01*
X30902400Y1075200D01*
X30902400Y1385091D01*
X30898703Y1395248D01*
X30893331Y1398350D01*
X30110859Y1398350D01*
X30100702Y1394653D01*
X30097600Y1389281D01*
X30097600Y1075200D01*
X30080007Y1026862D01*
X30035458Y1001142D01*
X30022400Y1000000D01*
X29978100Y1000000D01*
X29929762Y1017593D01*
X29904042Y1062142D01*
X29902900Y1075200D01*
X29902899Y2814071D01*
X29902899Y2816288D01*
X29900017Y2840518D01*
X29857992Y2935131D01*
X29853081Y2940033D01*
X29853080Y2940035D01*
X29789638Y3003366D01*
X29789637Y3003367D01*
X29784724Y3008271D01*
X29690038Y3050131D01*
X29684427Y3050785D01*
X29684424Y3050786D01*
X29668451Y3052648D01*
X29668450Y3052648D01*
X29666289Y3052900D01*
X29638166Y3052900D01*
X29589828Y3070493D01*
X29584992Y3074926D01*
X29176526Y3483392D01*
X29154786Y3530012D01*
X29154500Y3536566D01*
X29154500Y3567532D01*
X29155945Y3582202D01*
X29158040Y3592735D01*
X29159485Y3600000D01*
X29154500Y3625063D01*
X29154500Y3625067D01*
X29139734Y3699301D01*
X29119260Y3729943D01*
X29109764Y3744153D01*
X29083484Y3783484D01*
X29077327Y3787598D01*
X29076524Y3788401D01*
X29054786Y3835022D01*
X29054500Y3841574D01*
X29054500Y4058426D01*
X29072093Y4106764D01*
X29076524Y4111599D01*
X29077327Y4112402D01*
X29083484Y4116516D01*
X29117570Y4167528D01*
X29135619Y4194540D01*
X29135620Y4194541D01*
X29139734Y4200699D01*
X29154500Y4274933D01*
X29154500Y4274937D01*
X29159485Y4300000D01*
X29155945Y4317798D01*
X29154500Y4332468D01*
X29154500Y6667528D01*
X29155945Y6682199D01*
X29158041Y6692736D01*
X29159486Y6700000D01*
X29146930Y6763126D01*
X29141179Y6792038D01*
X29141178Y6792039D01*
X29139734Y6799301D01*
X29097684Y6862234D01*
X29097681Y6862237D01*
X29083484Y6883484D01*
X29068394Y6893567D01*
X29056999Y6902919D01*
X29031949Y6927969D01*
X29010209Y6974589D01*
X29010848Y6992901D01*
X29011046Y6994152D01*
X29011046Y6994153D01*
X29011972Y7000000D01*
X28991809Y7127306D01*
X28960330Y7189086D01*
X28935981Y7236874D01*
X28935980Y7236875D01*
X28933292Y7242151D01*
X28842151Y7333292D01*
X28727306Y7391809D01*
X28600000Y7411972D01*
X28472694Y7391809D01*
X28357849Y7333292D01*
X28266708Y7242151D01*
X28264020Y7236875D01*
X28264019Y7236874D01*
X28239670Y7189086D01*
X28208191Y7127306D01*
X28188028Y7000000D01*
X28208191Y6872694D01*
X28266708Y6757849D01*
X28357849Y6666708D01*
X28472694Y6608191D01*
X28582065Y6590869D01*
X28627054Y6565931D01*
X28645500Y6516595D01*
X28645500Y4441573D01*
X28627907Y4393235D01*
X28623474Y4388399D01*
X28622673Y4387598D01*
X28616516Y4383484D01*
X28602319Y4362237D01*
X28602316Y4362234D01*
X28560266Y4299301D01*
X28558822Y4292039D01*
X28558821Y4292038D01*
X28548407Y4239683D01*
X28540514Y4200000D01*
X28541959Y4192736D01*
X28544055Y4182199D01*
X28545500Y4167528D01*
X28545500Y3854302D01*
X28527907Y3805964D01*
X28483358Y3780244D01*
X28436162Y3787297D01*
X28432581Y3789122D01*
X28432577Y3789123D01*
X28427306Y3791809D01*
X28300000Y3811972D01*
X28172694Y3791809D01*
X28144268Y3777325D01*
X28079165Y3744153D01*
X28057849Y3733292D01*
X27966708Y3642151D01*
X27964020Y3636875D01*
X27964019Y3636874D01*
X27941884Y3593432D01*
X27908191Y3527306D01*
X27888028Y3400000D01*
X27908191Y3272694D01*
X27910878Y3267421D01*
X27953478Y3183815D01*
X27966708Y3157849D01*
X28057849Y3066708D01*
X28063123Y3064021D01*
X28063128Y3064017D01*
X28111905Y3039164D01*
X28146986Y3001543D01*
X28149678Y2950174D01*
X28142720Y2935716D01*
X28141729Y2934724D01*
X28138924Y2928380D01*
X28138923Y2928378D01*
X28123743Y2894040D01*
X28099869Y2840038D01*
X28097100Y2816289D01*
X28097100Y2814113D01*
X28097101Y1075200D01*
X28079508Y1026862D01*
X28034959Y1001142D01*
X28021901Y1000000D01*
X27977600Y1000000D01*
X27929262Y1017593D01*
X27903542Y1062142D01*
X27902400Y1075200D01*
X27902400Y1385091D01*
X27898703Y1395248D01*
X27893331Y1398350D01*
X27110859Y1398350D01*
X27100702Y1394653D01*
X27097600Y1389281D01*
X27097600Y1075200D01*
X27080007Y1026862D01*
X27035458Y1001142D01*
X27022400Y1000000D01*
X26978100Y1000000D01*
X26929762Y1017593D01*
X26904042Y1062142D01*
X26902900Y1075200D01*
X26902900Y1614909D01*
X27097600Y1614909D01*
X27101297Y1604752D01*
X27106669Y1601650D01*
X27385091Y1601650D01*
X27395248Y1605347D01*
X27398350Y1610719D01*
X27398350Y1614909D01*
X27601650Y1614909D01*
X27605347Y1604752D01*
X27610719Y1601650D01*
X27889141Y1601650D01*
X27899298Y1605347D01*
X27902400Y1610719D01*
X27902400Y2813988D01*
X27902137Y2818426D01*
X27900189Y2834796D01*
X27897232Y2845556D01*
X27860391Y2928500D01*
X27852660Y2939747D01*
X27789351Y3002946D01*
X27778086Y3010659D01*
X27695096Y3047348D01*
X27684303Y3050291D01*
X27668376Y3052148D01*
X27664038Y3052400D01*
X27614909Y3052400D01*
X27604752Y3048703D01*
X27601650Y3043331D01*
X27601650Y1614909D01*
X27398350Y1614909D01*
X27398350Y3039141D01*
X27394653Y3049298D01*
X27389281Y3052400D01*
X27336012Y3052400D01*
X27331574Y3052137D01*
X27315204Y3050189D01*
X27304444Y3047232D01*
X27221500Y3010391D01*
X27210253Y3002660D01*
X27147054Y2939351D01*
X27139341Y2928086D01*
X27102652Y2845096D01*
X27099709Y2834303D01*
X27097853Y2818388D01*
X27097600Y2814038D01*
X27097600Y1614909D01*
X26902900Y1614909D01*
X26902899Y2814071D01*
X26902899Y2816288D01*
X26900017Y2840518D01*
X26857992Y2935131D01*
X26853081Y2940033D01*
X26853080Y2940035D01*
X26789638Y3003366D01*
X26789637Y3003367D01*
X26784724Y3008271D01*
X26690038Y3050131D01*
X26684427Y3050785D01*
X26684424Y3050786D01*
X26668451Y3052648D01*
X26668450Y3052648D01*
X26666289Y3052900D01*
X26590300Y3052900D01*
X26541962Y3070493D01*
X26516242Y3115042D01*
X26515100Y3128100D01*
X26515100Y3341454D01*
X26532693Y3389792D01*
X26556159Y3408457D01*
X26567071Y3414017D01*
X26567074Y3414019D01*
X26572351Y3416708D01*
X26663492Y3507849D01*
X26722009Y3622694D01*
X26742172Y3750000D01*
X26722009Y3877306D01*
X26663492Y3992151D01*
X26572351Y4083292D01*
X26550192Y4094583D01*
X26462779Y4139122D01*
X26462780Y4139122D01*
X26457506Y4141809D01*
X26330200Y4161972D01*
X26202894Y4141809D01*
X26197620Y4139122D01*
X26197621Y4139122D01*
X26110209Y4094583D01*
X26088049Y4083292D01*
X26053174Y4048417D01*
X26006554Y4026677D01*
X25956867Y4039991D01*
X25946826Y4048417D01*
X25911951Y4083292D01*
X25889792Y4094583D01*
X25802379Y4139122D01*
X25802380Y4139122D01*
X25797106Y4141809D01*
X25669800Y4161972D01*
X25542494Y4141809D01*
X25537220Y4139122D01*
X25537221Y4139122D01*
X25449809Y4094583D01*
X25427649Y4083292D01*
X25336508Y3992151D01*
X25277991Y3877306D01*
X25257828Y3750000D01*
X25277991Y3622694D01*
X25336508Y3507849D01*
X25427649Y3416708D01*
X25432926Y3414019D01*
X25432929Y3414017D01*
X25443841Y3408457D01*
X25478922Y3370836D01*
X25484900Y3341454D01*
X25484900Y3128099D01*
X25467307Y3079761D01*
X25422758Y3054041D01*
X25409700Y3052899D01*
X25333712Y3052899D01*
X25331521Y3052638D01*
X25331514Y3052638D01*
X25323323Y3051663D01*
X25309482Y3050017D01*
X25214869Y3007992D01*
X25209967Y3003081D01*
X25209965Y3003080D01*
X25146743Y2939747D01*
X25141729Y2934724D01*
X25099869Y2840038D01*
X25097100Y2816289D01*
X25097100Y2814113D01*
X25097101Y1075200D01*
X25079508Y1026862D01*
X25034959Y1001142D01*
X25021901Y1000000D01*
X24977600Y1000000D01*
X24929262Y1017593D01*
X24903542Y1062142D01*
X24902400Y1075200D01*
X24902400Y1385091D01*
X24898703Y1395248D01*
X24893331Y1398350D01*
X24110859Y1398350D01*
X24100702Y1394653D01*
X24097600Y1389281D01*
X24097600Y1075200D01*
X24080007Y1026862D01*
X24035458Y1001142D01*
X24022400Y1000000D01*
X23978100Y1000000D01*
X23929762Y1017593D01*
X23904042Y1062142D01*
X23902900Y1075200D01*
X23902900Y1614909D01*
X24097600Y1614909D01*
X24101297Y1604752D01*
X24106669Y1601650D01*
X24385091Y1601650D01*
X24395248Y1605347D01*
X24398350Y1610719D01*
X24398350Y1614909D01*
X24601650Y1614909D01*
X24605347Y1604752D01*
X24610719Y1601650D01*
X24889141Y1601650D01*
X24899298Y1605347D01*
X24902400Y1610719D01*
X24902400Y2813988D01*
X24902137Y2818426D01*
X24900189Y2834796D01*
X24897232Y2845556D01*
X24860391Y2928500D01*
X24852660Y2939747D01*
X24789351Y3002946D01*
X24778086Y3010659D01*
X24695096Y3047348D01*
X24684303Y3050291D01*
X24668376Y3052148D01*
X24664038Y3052400D01*
X24614909Y3052400D01*
X24604752Y3048703D01*
X24601650Y3043331D01*
X24601650Y1614909D01*
X24398350Y1614909D01*
X24398350Y3039141D01*
X24394653Y3049298D01*
X24389281Y3052400D01*
X24336012Y3052400D01*
X24331574Y3052137D01*
X24315204Y3050189D01*
X24304444Y3047232D01*
X24221500Y3010391D01*
X24210253Y3002660D01*
X24147054Y2939351D01*
X24139341Y2928086D01*
X24102652Y2845096D01*
X24099709Y2834303D01*
X24097853Y2818388D01*
X24097600Y2814038D01*
X24097600Y1614909D01*
X23902900Y1614909D01*
X23902899Y2814071D01*
X23902899Y2816288D01*
X23900017Y2840518D01*
X23857992Y2935131D01*
X23853081Y2940033D01*
X23853080Y2940035D01*
X23789638Y3003366D01*
X23789637Y3003367D01*
X23784724Y3008271D01*
X23690038Y3050131D01*
X23684427Y3050785D01*
X23684424Y3050786D01*
X23668451Y3052648D01*
X23668450Y3052648D01*
X23666289Y3052900D01*
X23590300Y3052900D01*
X23541962Y3070493D01*
X23516242Y3115042D01*
X23515100Y3128100D01*
X23515100Y3341454D01*
X23532693Y3389792D01*
X23556159Y3408457D01*
X23567071Y3414017D01*
X23567074Y3414019D01*
X23572351Y3416708D01*
X23663492Y3507849D01*
X23722009Y3622694D01*
X23742172Y3750000D01*
X23722009Y3877306D01*
X23663492Y3992151D01*
X23572351Y4083292D01*
X23550192Y4094583D01*
X23462779Y4139122D01*
X23462780Y4139122D01*
X23457506Y4141809D01*
X23330200Y4161972D01*
X23202894Y4141809D01*
X23197620Y4139122D01*
X23197621Y4139122D01*
X23110209Y4094583D01*
X23088049Y4083292D01*
X23053174Y4048417D01*
X23006554Y4026677D01*
X22956867Y4039991D01*
X22946826Y4048417D01*
X22911951Y4083292D01*
X22889792Y4094583D01*
X22802379Y4139122D01*
X22802380Y4139122D01*
X22797106Y4141809D01*
X22669800Y4161972D01*
X22542494Y4141809D01*
X22537220Y4139122D01*
X22537221Y4139122D01*
X22449809Y4094583D01*
X22427649Y4083292D01*
X22336508Y3992151D01*
X22277991Y3877306D01*
X22257828Y3750000D01*
X22277991Y3622694D01*
X22336508Y3507849D01*
X22427649Y3416708D01*
X22432926Y3414019D01*
X22432929Y3414017D01*
X22443841Y3408457D01*
X22478922Y3370836D01*
X22484900Y3341454D01*
X22484900Y3128099D01*
X22467307Y3079761D01*
X22422758Y3054041D01*
X22409700Y3052899D01*
X22333712Y3052899D01*
X22331521Y3052638D01*
X22331514Y3052638D01*
X22323323Y3051663D01*
X22309482Y3050017D01*
X22214869Y3007992D01*
X22209967Y3003081D01*
X22209965Y3003080D01*
X22146743Y2939747D01*
X22141729Y2934724D01*
X22099869Y2840038D01*
X22097100Y2816289D01*
X22097100Y2814113D01*
X22097101Y1075200D01*
X22079508Y1026862D01*
X22034959Y1001142D01*
X22021901Y1000000D01*
X22000000Y1000000D01*
X21272526Y272526D01*
X21225906Y250786D01*
X21219352Y250500D01*
X20952600Y250500D01*
X20904262Y268093D01*
X20878542Y312642D01*
X20877400Y325700D01*
X20877400Y1285091D01*
X20873703Y1295248D01*
X20868331Y1298350D01*
X19585859Y1298350D01*
X19575702Y1294653D01*
X19572600Y1289281D01*
X19572600Y329163D01*
X19555007Y280825D01*
X19510458Y255105D01*
X19504252Y254562D01*
X19500000Y255408D01*
X19492736Y253963D01*
X19487535Y253963D01*
X19472398Y253218D01*
X19361149Y264175D01*
X19346692Y267051D01*
X19331841Y271556D01*
X19220261Y305404D01*
X19206653Y311040D01*
X19090130Y373323D01*
X19077878Y381510D01*
X18975749Y465324D01*
X18965324Y475749D01*
X18881510Y577878D01*
X18873321Y590134D01*
X18861431Y612379D01*
X18811040Y706653D01*
X18805402Y720265D01*
X18767051Y846692D01*
X18764175Y861150D01*
X18753219Y972393D01*
X18753964Y987565D01*
X18753964Y992739D01*
X18755408Y1000000D01*
X18753964Y1007261D01*
X18753964Y1008555D01*
X18753338Y1013084D01*
X18739156Y1193280D01*
X18739156Y1193282D01*
X18738924Y1196226D01*
X18717174Y1286821D01*
X18693666Y1384740D01*
X18693665Y1384744D01*
X18692974Y1387621D01*
X18690062Y1394653D01*
X18640249Y1514909D01*
X19572600Y1514909D01*
X19576297Y1504752D01*
X19581669Y1501650D01*
X20110091Y1501650D01*
X20120248Y1505347D01*
X20123350Y1510719D01*
X20123350Y1514909D01*
X20326650Y1514909D01*
X20330347Y1504752D01*
X20335719Y1501650D01*
X20864141Y1501650D01*
X20874298Y1505347D01*
X20877400Y1510719D01*
X20877400Y2478716D01*
X20876938Y2484588D01*
X20863402Y2570051D01*
X20859789Y2581171D01*
X20807295Y2684196D01*
X20800416Y2693663D01*
X20718663Y2775416D01*
X20709196Y2782295D01*
X20606171Y2834789D01*
X20595051Y2838402D01*
X20509588Y2851938D01*
X20503716Y2852400D01*
X20339909Y2852400D01*
X20329752Y2848703D01*
X20326650Y2843331D01*
X20326650Y1514909D01*
X20123350Y1514909D01*
X20123350Y2839141D01*
X20119653Y2849298D01*
X20114281Y2852400D01*
X19946284Y2852400D01*
X19940412Y2851938D01*
X19854949Y2838402D01*
X19843829Y2834789D01*
X19740804Y2782295D01*
X19731337Y2775416D01*
X19649584Y2693663D01*
X19642705Y2684196D01*
X19590211Y2581171D01*
X19586598Y2570051D01*
X19573062Y2484588D01*
X19572600Y2478716D01*
X19572600Y1514909D01*
X18640249Y1514909D01*
X18618780Y1566740D01*
X18617649Y1569471D01*
X18589805Y1614909D01*
X18516349Y1734776D01*
X18514804Y1737298D01*
X18386971Y1886971D01*
X18237298Y2014804D01*
X18137349Y2076053D01*
X18071996Y2116102D01*
X18071993Y2116104D01*
X18069471Y2117649D01*
X18009786Y2142372D01*
X17890355Y2191842D01*
X17890350Y2191844D01*
X17887621Y2192974D01*
X17884744Y2193665D01*
X17884740Y2193666D01*
X17699100Y2238234D01*
X17696226Y2238924D01*
X17693282Y2239156D01*
X17693280Y2239156D01*
X17513084Y2253338D01*
X17508556Y2253964D01*
X17507262Y2253964D01*
X17500000Y2255408D01*
X17484999Y2252424D01*
X17482590Y2251945D01*
X17467919Y2250500D01*
X7780648Y2250500D01*
X7732310Y2268093D01*
X7727474Y2272526D01*
X4000000Y6000000D01*
X325700Y6000000D01*
X277362Y6017593D01*
X251642Y6062142D01*
X250500Y6075200D01*
X250500Y7586888D01*
X8335873Y7586888D01*
X8337147Y7582134D01*
X8393671Y7534027D01*
X8399686Y7529846D01*
X8573423Y7432749D01*
X8580136Y7429816D01*
X8769421Y7368314D01*
X8776569Y7366742D01*
X8974196Y7343176D01*
X8981528Y7343023D01*
X9179964Y7358292D01*
X9187173Y7359563D01*
X9378870Y7413085D01*
X9385703Y7415736D01*
X9563349Y7505471D01*
X9569532Y7509395D01*
X9658629Y7579005D01*
X9664357Y7588172D01*
X9663749Y7592496D01*
X9009377Y8246868D01*
X8999578Y8251437D01*
X8993587Y8249832D01*
X8340442Y7596687D01*
X8335873Y7586888D01*
X250500Y7586888D01*
X250500Y8411094D01*
X7942919Y8411094D01*
X7959573Y8212769D01*
X7960895Y8205567D01*
X8015755Y8014247D01*
X8018451Y8007438D01*
X8109427Y7830420D01*
X8113393Y7824265D01*
X8179046Y7741430D01*
X8188255Y7735765D01*
X8192661Y7736416D01*
X8846868Y8390623D01*
X8851043Y8399578D01*
X9148563Y8399578D01*
X9150168Y8393587D01*
X9803417Y7740338D01*
X9813216Y7735769D01*
X9818066Y7737068D01*
X9861719Y7787640D01*
X9865943Y7793628D01*
X9964249Y7966678D01*
X9967229Y7973373D01*
X10030051Y8162220D01*
X10031674Y8169365D01*
X10056816Y8368384D01*
X10057109Y8372576D01*
X10057463Y8397901D01*
X10057287Y8402093D01*
X10037712Y8601734D01*
X10036286Y8608930D01*
X9978763Y8799458D01*
X9975975Y8806224D01*
X9882532Y8981964D01*
X9878487Y8988052D01*
X9820977Y9058567D01*
X9811693Y9064101D01*
X9807115Y9063360D01*
X9153132Y8409377D01*
X9148563Y8399578D01*
X8851043Y8399578D01*
X8851437Y8400422D01*
X8849832Y8406413D01*
X8196754Y9059491D01*
X8186955Y9064060D01*
X8182295Y9062812D01*
X8129814Y9000266D01*
X8125676Y8994223D01*
X8029796Y8819817D01*
X8026909Y8813081D01*
X7966730Y8623372D01*
X7965207Y8616207D01*
X7943022Y8418427D01*
X7942919Y8411094D01*
X250500Y8411094D01*
X250500Y9211703D01*
X8335850Y9211703D01*
X8336546Y9207209D01*
X8990623Y8553132D01*
X9000422Y8548563D01*
X9006413Y8550168D01*
X9659460Y9203215D01*
X9664029Y9213014D01*
X9662805Y9217582D01*
X9594173Y9274359D01*
X9588111Y9278448D01*
X9413027Y9373115D01*
X9406283Y9375950D01*
X9216149Y9434806D01*
X9208982Y9436277D01*
X9011038Y9457082D01*
X9003725Y9457133D01*
X8805504Y9439094D01*
X8798318Y9437723D01*
X8607387Y9381529D01*
X8600600Y9378787D01*
X8424210Y9286573D01*
X8418092Y9282569D01*
X8341449Y9220947D01*
X8335850Y9211703D01*
X250500Y9211703D01*
X250500Y10813644D01*
X1012629Y10813644D01*
X1014174Y10807877D01*
X1019193Y10802987D01*
X1024528Y10798667D01*
X1194906Y10684824D01*
X1200930Y10681553D01*
X1389197Y10600667D01*
X1395723Y10598547D01*
X1595574Y10553325D01*
X1602384Y10552429D01*
X1807126Y10544384D01*
X1813980Y10544743D01*
X2016760Y10574145D01*
X2023445Y10575750D01*
X2217468Y10641612D01*
X2223736Y10644403D01*
X2402514Y10744523D01*
X2408174Y10748413D01*
X2479684Y10807887D01*
X2485130Y10817225D01*
X2484323Y10821922D01*
X1759377Y11546868D01*
X1749578Y11551437D01*
X1743587Y11549832D01*
X1017198Y10823443D01*
X1012629Y10813644D01*
X250500Y10813644D01*
X250500Y11726859D01*
X593285Y11726859D01*
X606687Y11522392D01*
X607761Y11515612D01*
X658197Y11317016D01*
X660491Y11310539D01*
X746274Y11124462D01*
X749704Y11118521D01*
X855949Y10968186D01*
X864831Y10962025D01*
X868618Y10962373D01*
X1596868Y11690623D01*
X1601043Y11699578D01*
X1898563Y11699578D01*
X1900168Y11693587D01*
X2624257Y10969498D01*
X2634056Y10964929D01*
X2638658Y10966162D01*
X2701587Y11041826D01*
X2705477Y11047486D01*
X2805597Y11226264D01*
X2808388Y11232532D01*
X2874250Y11426555D01*
X2875855Y11433240D01*
X2905434Y11637245D01*
X2905809Y11641641D01*
X2907279Y11697783D01*
X2907135Y11702202D01*
X2888272Y11907475D01*
X2887021Y11914227D01*
X2831402Y12111436D01*
X2828943Y12117843D01*
X2738317Y12301614D01*
X2734727Y12307472D01*
X2642840Y12430524D01*
X2633799Y12436452D01*
X2629725Y12435970D01*
X1903132Y11709377D01*
X1898563Y11699578D01*
X1601043Y11699578D01*
X1601437Y11700422D01*
X1599832Y11706413D01*
X875391Y12430854D01*
X865592Y12435423D01*
X861322Y12434279D01*
X781508Y12333036D01*
X777771Y12327281D01*
X682363Y12145941D01*
X679740Y12139609D01*
X618975Y11943913D01*
X617549Y11937203D01*
X593465Y11733715D01*
X593285Y11726859D01*
X250500Y11726859D01*
X250500Y12583109D01*
X1014681Y12583109D01*
X1015683Y12578072D01*
X1740623Y11853132D01*
X1750422Y11848563D01*
X1756413Y11850168D01*
X2481478Y12575233D01*
X2486047Y12585032D01*
X2484615Y12590379D01*
X2457077Y12615834D01*
X2451627Y12620016D01*
X2278332Y12729358D01*
X2272218Y12732472D01*
X2081910Y12808398D01*
X2075315Y12810352D01*
X1874358Y12850324D01*
X1867529Y12851042D01*
X1662639Y12853724D01*
X1655801Y12853186D01*
X1453851Y12818485D01*
X1447229Y12816710D01*
X1254988Y12745788D01*
X1248790Y12742831D01*
X1072704Y12638072D01*
X1067140Y12634030D01*
X1019880Y12592585D01*
X1014681Y12583109D01*
X250500Y12583109D01*
X250500Y19467919D01*
X251945Y19482590D01*
X253963Y19492735D01*
X253963Y19492736D01*
X255408Y19500000D01*
X253773Y19508221D01*
X252521Y19528252D01*
X267923Y19743615D01*
X269450Y19754236D01*
X273263Y19771764D01*
X320224Y19987637D01*
X323242Y19997918D01*
X406721Y20221734D01*
X411179Y20231494D01*
X525648Y20441127D01*
X531448Y20450152D01*
X674597Y20641378D01*
X681624Y20649487D01*
X850513Y20818376D01*
X858622Y20825403D01*
X1049848Y20968552D01*
X1058873Y20974352D01*
X1268506Y21088821D01*
X1278266Y21093279D01*
X1338052Y21115578D01*
X1502082Y21176758D01*
X1512363Y21179776D01*
X1745769Y21230551D01*
X1756381Y21232076D01*
X1843599Y21238314D01*
X1971748Y21247479D01*
X1991779Y21246227D01*
X1992734Y21246037D01*
X1992735Y21246037D01*
X2000000Y21244592D01*
X2007264Y21246037D01*
X2007265Y21246037D01*
X2017410Y21248055D01*
X2032081Y21249500D01*
X52467919Y21249500D01*
X52482590Y21248055D01*
G37*
%TD.AperFunction*%
%TA.AperFunction,Conductor*%
G36*
X20340409Y15227907D02*
G01*
X20366129Y15183358D01*
X20357196Y15132700D01*
X20326911Y15103657D01*
X20215192Y15045252D01*
X20061912Y14922012D01*
X19935489Y14771347D01*
X19840739Y14598996D01*
X19781269Y14411524D01*
X19759345Y14216070D01*
X19759653Y14212402D01*
X19759653Y14212399D01*
X19772807Y14055757D01*
X19775803Y14020081D01*
X19830015Y13831021D01*
X19919916Y13656092D01*
X20042083Y13501956D01*
X20044877Y13499578D01*
X20044878Y13499577D01*
X20102427Y13450599D01*
X20191862Y13374484D01*
X20195063Y13372695D01*
X20195066Y13372693D01*
X20231622Y13352263D01*
X20363547Y13278533D01*
X20367044Y13277397D01*
X20367048Y13277395D01*
X20452809Y13249530D01*
X20550600Y13217756D01*
X20657984Y13204951D01*
X20742237Y13194904D01*
X20742239Y13194904D01*
X20745895Y13194468D01*
X20941994Y13209557D01*
X21057354Y13241766D01*
X21127883Y13261458D01*
X21127885Y13261459D01*
X21131428Y13262448D01*
X21186924Y13290481D01*
X21238002Y13296571D01*
X21274003Y13276532D01*
X21699602Y12850933D01*
X21703057Y12846931D01*
X21705100Y12842752D01*
X21740027Y12810352D01*
X21741154Y12809307D01*
X21743186Y12807349D01*
X21756998Y12793537D01*
X21759853Y12791578D01*
X21762251Y12789585D01*
X21765313Y12786896D01*
X21785915Y12767785D01*
X21795415Y12763995D01*
X21798750Y12762664D01*
X21813419Y12754832D01*
X21824811Y12747017D01*
X21831567Y12745414D01*
X21831569Y12745413D01*
X21842451Y12742831D01*
X21851920Y12740584D01*
X21862407Y12737268D01*
X21888299Y12726938D01*
X21894490Y12726331D01*
X21903180Y12726331D01*
X21920543Y12724299D01*
X21932064Y12721565D01*
X21938942Y12722501D01*
X21938943Y12722501D01*
X21962038Y12725644D01*
X21972178Y12726331D01*
X22871917Y12726331D01*
X22920255Y12708738D01*
X22945975Y12664189D01*
X22937042Y12613531D01*
X22906757Y12584488D01*
X22755192Y12505252D01*
X22601912Y12382012D01*
X22475489Y12231347D01*
X22473718Y12228125D01*
X22473717Y12228124D01*
X22455041Y12194152D01*
X22380739Y12058996D01*
X22321269Y11871524D01*
X22299345Y11676070D01*
X22299653Y11672402D01*
X22299653Y11672399D01*
X22311109Y11535980D01*
X22315803Y11480081D01*
X22370015Y11291021D01*
X22459916Y11116092D01*
X22582083Y10961956D01*
X22584878Y10959578D01*
X22584883Y10959572D01*
X22601469Y10945456D01*
X22626877Y10900730D01*
X22617591Y10850135D01*
X22577955Y10817346D01*
X22552730Y10812989D01*
X21523305Y10812989D01*
X21474967Y10830582D01*
X21449247Y10875131D01*
X21458180Y10925789D01*
X21466379Y10937326D01*
X21572633Y11060423D01*
X21590480Y11081099D01*
X21605344Y11107265D01*
X21685810Y11248909D01*
X21685812Y11248912D01*
X21687628Y11252110D01*
X21729686Y11378541D01*
X21748548Y11435240D01*
X21748549Y11435243D01*
X21749710Y11438734D01*
X21774360Y11633862D01*
X21774753Y11662000D01*
X21773963Y11670055D01*
X21755921Y11854073D01*
X21755920Y11854078D01*
X21755561Y11857740D01*
X21698714Y12046025D01*
X21606379Y12219682D01*
X21482072Y12372097D01*
X21330528Y12497465D01*
X21157520Y12591010D01*
X20969637Y12649170D01*
X20807508Y12666210D01*
X20777690Y12669344D01*
X20777689Y12669344D01*
X20774035Y12669728D01*
X20735378Y12666210D01*
X20581824Y12652236D01*
X20581823Y12652236D01*
X20578166Y12651903D01*
X20574641Y12650866D01*
X20574638Y12650865D01*
X20412950Y12603277D01*
X20389489Y12596372D01*
X20215192Y12505252D01*
X20061912Y12382012D01*
X19935489Y12231347D01*
X19933718Y12228125D01*
X19933717Y12228124D01*
X19915041Y12194152D01*
X19840739Y12058996D01*
X19781269Y11871524D01*
X19759345Y11676070D01*
X19759653Y11672402D01*
X19759653Y11672399D01*
X19771109Y11535980D01*
X19775803Y11480081D01*
X19830015Y11291021D01*
X19919916Y11116092D01*
X19941987Y11088245D01*
X19951367Y11076411D01*
X19967605Y11027601D01*
X19948669Y10979773D01*
X19903420Y10955307D01*
X19892434Y10954500D01*
X17332472Y10954500D01*
X17317804Y10955945D01*
X17300000Y10959486D01*
X17292735Y10958041D01*
X17285329Y10958041D01*
X17285329Y10961093D01*
X17247314Y10966944D01*
X17213397Y11005618D01*
X17212275Y11057046D01*
X17217872Y11069618D01*
X17305597Y11226264D01*
X17308388Y11232532D01*
X17374250Y11426555D01*
X17375855Y11433240D01*
X17405434Y11637245D01*
X17405809Y11641641D01*
X17407279Y11697783D01*
X17407135Y11702202D01*
X17388272Y11907475D01*
X17387021Y11914227D01*
X17331402Y12111436D01*
X17328943Y12117843D01*
X17238317Y12301614D01*
X17234727Y12307472D01*
X17142840Y12430524D01*
X17133799Y12436452D01*
X17129725Y12435970D01*
X15517198Y10823443D01*
X15512629Y10813645D01*
X15517450Y10795653D01*
X15512968Y10744409D01*
X15476595Y10708035D01*
X15444813Y10700989D01*
X13890076Y10700989D01*
X13841738Y10718582D01*
X13836913Y10723004D01*
X13622145Y10937773D01*
X13600406Y10984392D01*
X13613720Y11034079D01*
X13655857Y11063584D01*
X13700069Y11060687D01*
X13700699Y11060266D01*
X13707964Y11058821D01*
X13774926Y11045501D01*
X13774931Y11045500D01*
X13774934Y11045500D01*
X13774942Y11045499D01*
X13800000Y11040515D01*
X13807265Y11041960D01*
X13817798Y11044055D01*
X13832468Y11045500D01*
X14367528Y11045500D01*
X14382196Y11044055D01*
X14400000Y11040514D01*
X14407265Y11041959D01*
X14492038Y11058821D01*
X14492039Y11058822D01*
X14499301Y11060266D01*
X14562234Y11102316D01*
X14562237Y11102319D01*
X14583484Y11116516D01*
X14593567Y11131606D01*
X14602919Y11143001D01*
X14784504Y11324586D01*
X14987471Y11527554D01*
X15034091Y11549294D01*
X15083778Y11535980D01*
X15113531Y11492891D01*
X15158197Y11317016D01*
X15160491Y11310539D01*
X15246274Y11124462D01*
X15249704Y11118521D01*
X15355949Y10968186D01*
X15364831Y10962025D01*
X15368618Y10962373D01*
X16096868Y11690623D01*
X16101437Y11700422D01*
X16099832Y11706413D01*
X15375391Y12430854D01*
X15365592Y12435423D01*
X15361322Y12434279D01*
X15288756Y12342229D01*
X15245014Y12315161D01*
X15194107Y12322542D01*
X15159854Y12360919D01*
X15154500Y12388785D01*
X15154500Y12583109D01*
X15514681Y12583109D01*
X15515683Y12578072D01*
X16240623Y11853132D01*
X16250422Y11848563D01*
X16256413Y11850168D01*
X16981478Y12575233D01*
X16986047Y12585032D01*
X16984615Y12590379D01*
X16957077Y12615834D01*
X16951627Y12620016D01*
X16778332Y12729358D01*
X16772218Y12732472D01*
X16581910Y12808398D01*
X16575315Y12810352D01*
X16374358Y12850324D01*
X16367529Y12851042D01*
X16162639Y12853724D01*
X16155801Y12853186D01*
X15953851Y12818485D01*
X15947229Y12816710D01*
X15754988Y12745788D01*
X15748790Y12742831D01*
X15572704Y12638072D01*
X15567140Y12634030D01*
X15519880Y12592585D01*
X15514681Y12583109D01*
X15154500Y12583109D01*
X15154500Y12963434D01*
X15172093Y13011772D01*
X15176526Y13016608D01*
X17383391Y15223474D01*
X17430011Y15245214D01*
X17436565Y15245500D01*
X20292071Y15245500D01*
X20340409Y15227907D01*
G37*
%TD.AperFunction*%
%TD*%
M02*
