M48
; DRILL file {KiCad (6.0.5-0)} date Sunday, October 30, 2022 at 01:02:13 PM
; FORMAT={-:-/ absolute / metric / decimal}
; #@! TF.CreationDate,2022-10-30T13:02:13-07:00
; #@! TF.GenerationSoftware,Kicad,Pcbnew,(6.0.5-0)
; #@! TF.FileFunction,Plated,1,2,PTH
FMAT,2
METRIC
; #@! TA.AperFunction,Plated,PTH,ViaDrill
T1C0.254
; #@! TA.AperFunction,Plated,PTH,ViaDrill
T2C0.305
; #@! TA.AperFunction,Plated,PTH,ComponentDrill
T3C1.000
; #@! TA.AperFunction,Plated,PTH,ComponentDrill
T4C1.200
; #@! TA.AperFunction,Plated,PTH,ComponentDrill
T5C1.400
%
G90
G05
T1
X11.4Y16.0
X12.7Y11.5
X12.9Y12.2
X14.0Y17.3
X14.0Y15.7
X14.3Y12.8
X15.2Y14.9
X16.4Y16.1
X16.7Y13.4
X17.9Y14.6
X18.4Y11.7
X18.9Y17.9
X19.3Y2.8
X19.3Y2.1
X19.3Y1.4
X19.3Y0.7
X19.6Y12.9
X21.2Y2.8
X21.2Y2.1
X21.2Y1.4
X21.2Y0.7
X21.5Y19.1
X22.0Y3.3
X22.67Y3.75
X23.33Y3.75
X23.7Y4.7
X24.2Y18.9
X24.4Y10.2
X25.2Y5.8
X25.6Y20.7
X25.67Y3.75
X26.33Y3.75
X26.4Y9.9
X26.7Y6.5
X28.3Y6.3
X28.3Y4.4
X28.3Y3.4
X28.4Y10.3
X28.6Y7.0
X29.7Y3.9
X30.5Y8.2
X30.6Y18.9
X30.9Y5.5
X31.3Y4.9
X31.4Y20.7
X32.8Y2.9
X32.8Y2.1
X32.8Y1.4
X32.8Y0.7
X34.7Y2.9
X34.7Y2.1
X34.7Y1.4
X34.7Y0.7
X37.6Y17.7
X38.2Y18.9
X38.9Y20.7
X44.7Y18.6
X45.6Y20.5
X47.1Y16.3
X47.8Y15.6
X48.3Y17.5
X48.5Y16.6
X48.8Y12.2
T2
X4.3Y7.9
X6.2Y6.8
X8.9Y4.7
X9.3Y2.9
X11.9Y11.4
X12.9Y8.3
X13.5Y6.5
X14.3Y4.7
X15.0Y2.9
X17.6Y10.1
X18.5Y8.3
X19.5Y6.5
X20.7Y4.7
X22.8Y10.0
X24.3Y8.3
T3
X20.767Y16.742
X20.767Y14.202
X20.767Y11.662
X23.307Y16.742
X23.307Y14.202
X23.307Y11.662
X25.847Y16.742
X25.847Y14.202
X25.847Y11.662
X28.387Y16.742
X28.387Y14.202
X28.387Y11.662
X30.927Y16.742
X30.927Y14.202
X30.927Y11.662
X33.467Y16.742
X33.467Y14.202
X33.467Y11.662
X36.007Y9.122
X36.007Y6.582
X36.007Y4.042
T4
X9.0Y8.4
X45.0Y8.4
T5
X1.75Y11.7
X16.25Y11.7
X37.75Y11.7
X52.25Y11.7
T0
M30
