%TF.GenerationSoftware,KiCad,Pcbnew,(6.0.5-0)*%
%TF.CreationDate,2022-10-30T13:02:09-07:00*%
%TF.ProjectId,hdmi-trident,68646d69-2d74-4726-9964-656e742e6b69,rev?*%
%TF.SameCoordinates,PX754d4c0PY6590fa0*%
%TF.FileFunction,Legend,Bot*%
%TF.FilePolarity,Positive*%
%FSLAX46Y46*%
G04 Gerber Fmt 4.6, Leading zero omitted, Abs format (unit mm)*
G04 Created by KiCad (PCBNEW (6.0.5-0)) date 2022-10-30 13:02:09*
%MOMM*%
%LPD*%
G01*
G04 APERTURE LIST*
%ADD10C,0.150000*%
%ADD11C,0.120000*%
%ADD12C,0.100000*%
G04 APERTURE END LIST*
D10*
X33052380Y9288215D02*
X33052380Y9764405D01*
X33528571Y9812024D01*
X33480952Y9764405D01*
X33433333Y9669167D01*
X33433333Y9431072D01*
X33480952Y9335834D01*
X33528571Y9288215D01*
X33623809Y9240596D01*
X33861904Y9240596D01*
X33957142Y9288215D01*
X34004761Y9335834D01*
X34052380Y9431072D01*
X34052380Y9669167D01*
X34004761Y9764405D01*
X33957142Y9812024D01*
X33052380Y8954881D02*
X34052380Y8621548D01*
X33052380Y8288215D01*
X28924761Y9812024D02*
X28972380Y9669167D01*
X28972380Y9431072D01*
X28924761Y9335834D01*
X28877142Y9288215D01*
X28781904Y9240596D01*
X28686666Y9240596D01*
X28591428Y9288215D01*
X28543809Y9335834D01*
X28496190Y9431072D01*
X28448571Y9621548D01*
X28400952Y9716786D01*
X28353333Y9764405D01*
X28258095Y9812024D01*
X28162857Y9812024D01*
X28067619Y9764405D01*
X28020000Y9716786D01*
X27972380Y9621548D01*
X27972380Y9383453D01*
X28020000Y9240596D01*
X28877142Y8240596D02*
X28924761Y8288215D01*
X28972380Y8431072D01*
X28972380Y8526310D01*
X28924761Y8669167D01*
X28829523Y8764405D01*
X28734285Y8812024D01*
X28543809Y8859643D01*
X28400952Y8859643D01*
X28210476Y8812024D01*
X28115238Y8764405D01*
X28020000Y8669167D01*
X27972380Y8526310D01*
X27972380Y8431072D01*
X28020000Y8288215D01*
X28067619Y8240596D01*
X28972380Y7335834D02*
X28972380Y7812024D01*
X27972380Y7812024D01*
X26384761Y9812024D02*
X26432380Y9669167D01*
X26432380Y9431072D01*
X26384761Y9335834D01*
X26337142Y9288215D01*
X26241904Y9240596D01*
X26146666Y9240596D01*
X26051428Y9288215D01*
X26003809Y9335834D01*
X25956190Y9431072D01*
X25908571Y9621548D01*
X25860952Y9716786D01*
X25813333Y9764405D01*
X25718095Y9812024D01*
X25622857Y9812024D01*
X25527619Y9764405D01*
X25480000Y9716786D01*
X25432380Y9621548D01*
X25432380Y9383453D01*
X25480000Y9240596D01*
X26432380Y8812024D02*
X25432380Y8812024D01*
X25432380Y8573929D01*
X25480000Y8431072D01*
X25575238Y8335834D01*
X25670476Y8288215D01*
X25860952Y8240596D01*
X26003809Y8240596D01*
X26194285Y8288215D01*
X26289523Y8335834D01*
X26384761Y8431072D01*
X26432380Y8573929D01*
X26432380Y8812024D01*
X26146666Y7859643D02*
X26146666Y7383453D01*
X26432380Y7954881D02*
X25432380Y7621548D01*
X26432380Y7288215D01*
X20445595Y9847381D02*
X20445595Y8847381D01*
X20445595Y9323572D02*
X21017023Y9323572D01*
X21017023Y9847381D02*
X21017023Y8847381D01*
X21493214Y9323572D02*
X21826547Y9323572D01*
X21969404Y9847381D02*
X21493214Y9847381D01*
X21493214Y8847381D01*
X21969404Y8847381D01*
X22350357Y9561667D02*
X22826547Y9561667D01*
X22255119Y9847381D02*
X22588452Y8847381D01*
X22921785Y9847381D01*
X23826547Y9752143D02*
X23778928Y9799762D01*
X23636071Y9847381D01*
X23540833Y9847381D01*
X23397976Y9799762D01*
X23302738Y9704524D01*
X23255119Y9609286D01*
X23207500Y9418810D01*
X23207500Y9275953D01*
X23255119Y9085477D01*
X23302738Y8990239D01*
X23397976Y8895000D01*
X23540833Y8847381D01*
X23636071Y8847381D01*
X23778928Y8895000D01*
X23826547Y8942620D01*
X20931428Y8464405D02*
X20931428Y7702500D01*
X23471428Y8464405D02*
X23471428Y7702500D01*
X23852380Y8083453D02*
X23090476Y8083453D01*
X31417142Y9192977D02*
X31464761Y9240596D01*
X31512380Y9383453D01*
X31512380Y9478691D01*
X31464761Y9621548D01*
X31369523Y9716786D01*
X31274285Y9764405D01*
X31083809Y9812024D01*
X30940952Y9812024D01*
X30750476Y9764405D01*
X30655238Y9716786D01*
X30560000Y9621548D01*
X30512380Y9478691D01*
X30512380Y9383453D01*
X30560000Y9240596D01*
X30607619Y9192977D01*
X30988571Y8764405D02*
X30988571Y8431072D01*
X31512380Y8288215D02*
X31512380Y8764405D01*
X30512380Y8764405D01*
X30512380Y8288215D01*
X31417142Y7288215D02*
X31464761Y7335834D01*
X31512380Y7478691D01*
X31512380Y7573929D01*
X31464761Y7716786D01*
X31369523Y7812024D01*
X31274285Y7859643D01*
X31083809Y7907262D01*
X30940952Y7907262D01*
X30750476Y7859643D01*
X30655238Y7812024D01*
X30560000Y7716786D01*
X30512380Y7573929D01*
X30512380Y7478691D01*
X30560000Y7335834D01*
X30607619Y7288215D01*
X53212023Y4400239D02*
X53069166Y4352620D01*
X52831071Y4352620D01*
X52735833Y4400239D01*
X52688214Y4447858D01*
X52640595Y4543096D01*
X52640595Y4638334D01*
X52688214Y4733572D01*
X52735833Y4781191D01*
X52831071Y4828810D01*
X53021547Y4876429D01*
X53116785Y4924048D01*
X53164404Y4971667D01*
X53212023Y5066905D01*
X53212023Y5162143D01*
X53164404Y5257381D01*
X53116785Y5305000D01*
X53021547Y5352620D01*
X52783452Y5352620D01*
X52640595Y5305000D01*
X52212023Y4352620D02*
X52212023Y5352620D01*
X51831071Y5352620D01*
X51735833Y5305000D01*
X51688214Y5257381D01*
X51640595Y5162143D01*
X51640595Y5019286D01*
X51688214Y4924048D01*
X51735833Y4876429D01*
X51831071Y4828810D01*
X52212023Y4828810D01*
X50735833Y4352620D02*
X51212023Y4352620D01*
X51212023Y5352620D01*
X50402500Y4352620D02*
X50402500Y5352620D01*
X50069166Y5352620D02*
X49497738Y5352620D01*
X49783452Y4352620D02*
X49783452Y5352620D01*
X53164404Y2742620D02*
X53164404Y3742620D01*
X53164404Y3266429D02*
X52592976Y3266429D01*
X52592976Y2742620D02*
X52592976Y3742620D01*
X52116785Y3266429D02*
X51783452Y3266429D01*
X51640595Y2742620D02*
X52116785Y2742620D01*
X52116785Y3742620D01*
X51640595Y3742620D01*
X51259642Y3028334D02*
X50783452Y3028334D01*
X51354880Y2742620D02*
X51021547Y3742620D01*
X50688214Y2742620D01*
X49783452Y2837858D02*
X49831071Y2790239D01*
X49973928Y2742620D01*
X50069166Y2742620D01*
X50212023Y2790239D01*
X50307261Y2885477D01*
X50354880Y2980715D01*
X50402500Y3171191D01*
X50402500Y3314048D01*
X50354880Y3504524D01*
X50307261Y3599762D01*
X50212023Y3695000D01*
X50069166Y3742620D01*
X49973928Y3742620D01*
X49831071Y3695000D01*
X49783452Y3647381D01*
X48640595Y2790239D02*
X48497738Y2742620D01*
X48259642Y2742620D01*
X48164404Y2790239D01*
X48116785Y2837858D01*
X48069166Y2933096D01*
X48069166Y3028334D01*
X48116785Y3123572D01*
X48164404Y3171191D01*
X48259642Y3218810D01*
X48450119Y3266429D01*
X48545357Y3314048D01*
X48592976Y3361667D01*
X48640595Y3456905D01*
X48640595Y3552143D01*
X48592976Y3647381D01*
X48545357Y3695000D01*
X48450119Y3742620D01*
X48212023Y3742620D01*
X48069166Y3695000D01*
X47640595Y2742620D02*
X47640595Y3409286D01*
X47640595Y3742620D02*
X47688214Y3695000D01*
X47640595Y3647381D01*
X47592976Y3695000D01*
X47640595Y3742620D01*
X47640595Y3647381D01*
X47164404Y3409286D02*
X47164404Y2742620D01*
X47164404Y3314048D02*
X47116785Y3361667D01*
X47021547Y3409286D01*
X46878690Y3409286D01*
X46783452Y3361667D01*
X46735833Y3266429D01*
X46735833Y2742620D01*
X46259642Y2742620D02*
X46259642Y3742620D01*
X46164404Y3123572D02*
X45878690Y2742620D01*
X45878690Y3409286D02*
X46259642Y3028334D01*
X2959404Y4352620D02*
X3226071Y4828810D01*
X3416547Y4352620D02*
X3416547Y5352620D01*
X3111785Y5352620D01*
X3035595Y5305000D01*
X2997500Y5257381D01*
X2959404Y5162143D01*
X2959404Y5019286D01*
X2997500Y4924048D01*
X3035595Y4876429D01*
X3111785Y4828810D01*
X3416547Y4828810D01*
X2159404Y4447858D02*
X2197500Y4400239D01*
X2311785Y4352620D01*
X2387976Y4352620D01*
X2502261Y4400239D01*
X2578452Y4495477D01*
X2616547Y4590715D01*
X2654642Y4781191D01*
X2654642Y4924048D01*
X2616547Y5114524D01*
X2578452Y5209762D01*
X2502261Y5305000D01*
X2387976Y5352620D01*
X2311785Y5352620D01*
X2197500Y5305000D01*
X2159404Y5257381D01*
X1816547Y4352620D02*
X1816547Y5352620D01*
X1511785Y5352620D01*
X1435595Y5305000D01*
X1397500Y5257381D01*
X1359404Y5162143D01*
X1359404Y5019286D01*
X1397500Y4924048D01*
X1435595Y4876429D01*
X1511785Y4828810D01*
X1816547Y4828810D01*
X1130833Y5352620D02*
X673690Y5352620D01*
X902261Y4352620D02*
X902261Y5352620D01*
X5892738Y2742620D02*
X5892738Y3742620D01*
X5892738Y3266429D02*
X5435595Y3266429D01*
X5435595Y2742620D02*
X5435595Y3742620D01*
X5054642Y2742620D02*
X5054642Y3742620D01*
X4864166Y3742620D01*
X4749880Y3695000D01*
X4673690Y3599762D01*
X4635595Y3504524D01*
X4597500Y3314048D01*
X4597500Y3171191D01*
X4635595Y2980715D01*
X4673690Y2885477D01*
X4749880Y2790239D01*
X4864166Y2742620D01*
X5054642Y2742620D01*
X4254642Y2742620D02*
X4254642Y3742620D01*
X3987976Y3028334D01*
X3721309Y3742620D01*
X3721309Y2742620D01*
X3340357Y2742620D02*
X3340357Y3742620D01*
X2387976Y2790239D02*
X2273690Y2742620D01*
X2083214Y2742620D01*
X2007023Y2790239D01*
X1968928Y2837858D01*
X1930833Y2933096D01*
X1930833Y3028334D01*
X1968928Y3123572D01*
X2007023Y3171191D01*
X2083214Y3218810D01*
X2235595Y3266429D01*
X2311785Y3314048D01*
X2349880Y3361667D01*
X2387976Y3456905D01*
X2387976Y3552143D01*
X2349880Y3647381D01*
X2311785Y3695000D01*
X2235595Y3742620D01*
X2045119Y3742620D01*
X1930833Y3695000D01*
X1587976Y2742620D02*
X1587976Y3409286D01*
X1587976Y3218810D02*
X1549880Y3314048D01*
X1511785Y3361667D01*
X1435595Y3409286D01*
X1359404Y3409286D01*
X749880Y2790239D02*
X826071Y2742620D01*
X978452Y2742620D01*
X1054642Y2790239D01*
X1092738Y2837858D01*
X1130833Y2933096D01*
X1130833Y3218810D01*
X1092738Y3314048D01*
X1054642Y3361667D01*
X978452Y3409286D01*
X826071Y3409286D01*
X749880Y3361667D01*
%TO.C,J1*%
X15933333Y16347620D02*
X15933333Y15633334D01*
X15980952Y15490477D01*
X16076190Y15395239D01*
X16219047Y15347620D01*
X16314285Y15347620D01*
X14933333Y15347620D02*
X15504761Y15347620D01*
X15219047Y15347620D02*
X15219047Y16347620D01*
X15314285Y16204762D01*
X15409523Y16109524D01*
X15504761Y16061905D01*
%TO.C,J2*%
X52133333Y16447620D02*
X52133333Y15733334D01*
X52180952Y15590477D01*
X52276190Y15495239D01*
X52419047Y15447620D01*
X52514285Y15447620D01*
X51704761Y16352381D02*
X51657142Y16400000D01*
X51561904Y16447620D01*
X51323809Y16447620D01*
X51228571Y16400000D01*
X51180952Y16352381D01*
X51133333Y16257143D01*
X51133333Y16161905D01*
X51180952Y16019048D01*
X51752380Y15447620D01*
X51133333Y15447620D01*
D11*
%TO.C,J5*%
X33000000Y3000000D02*
X34500000Y3000000D01*
X34500000Y3000000D02*
X34500000Y250000D01*
X33000000Y250000D02*
X33000000Y3000000D01*
X19500000Y3000000D02*
X21000000Y3000000D01*
X19500000Y250000D02*
X19500000Y3000000D01*
X21000000Y3000000D02*
X21000000Y250000D01*
X21000000Y250000D02*
X22000000Y250000D01*
X32000000Y250000D02*
X33000000Y250000D01*
%TO.C,J1*%
G36*
X4750000Y15750000D02*
G01*
X4250000Y16250000D01*
X5250000Y16250000D01*
X4750000Y15750000D01*
G37*
D12*
X4750000Y15750000D02*
X4250000Y16250000D01*
X5250000Y16250000D01*
X4750000Y15750000D01*
D11*
X4500000Y13750000D02*
X1750000Y13750000D01*
X4000000Y8250000D02*
X7750000Y8250000D01*
X10250000Y8250000D02*
X14000000Y8250000D01*
X1750000Y13750000D02*
X1750000Y13000000D01*
X3000000Y9250000D02*
X4000000Y8250000D01*
X16250000Y9250000D02*
X16250000Y10500000D01*
X1750000Y15000000D02*
X2750000Y15000000D01*
X1750000Y10500000D02*
X1750000Y9250000D01*
X16250000Y14250000D02*
X16250000Y15000000D01*
X2750000Y15000000D02*
X2750000Y14250000D01*
X15000000Y9250000D02*
X16250000Y9250000D01*
X1750000Y14250000D02*
X1750000Y15000000D01*
X1750000Y9250000D02*
X3000000Y9250000D01*
X16250000Y15000000D02*
X15250000Y15000000D01*
X15250000Y15000000D02*
X15250000Y14250000D01*
X14000000Y8250000D02*
X15000000Y9250000D01*
X16250000Y13000000D02*
X16250000Y13750000D01*
X16250000Y13750000D02*
X14250000Y13750000D01*
%TO.C,JP12*%
X19800000Y16200000D02*
X19800000Y14800000D01*
X21800000Y14800000D02*
X21800000Y16200000D01*
X20500000Y14100000D02*
X21100000Y14100000D01*
X21100000Y16900000D02*
X20500000Y16900000D01*
X21100000Y14100000D02*
G75*
G03*
X21800000Y14800000I1J699999D01*
G01*
X19800000Y14800000D02*
G75*
G03*
X20500000Y14100000I699999J-1D01*
G01*
X20500000Y16900000D02*
G75*
G03*
X19800000Y16200000I0J-700000D01*
G01*
X21800000Y16200000D02*
G75*
G03*
X21100000Y16900000I-700000J0D01*
G01*
%TO.C,JP11*%
X22300000Y16200000D02*
X22300000Y14800000D01*
X24300000Y14800000D02*
X24300000Y16200000D01*
X23000000Y14100000D02*
X23600000Y14100000D01*
X23600000Y16900000D02*
X23000000Y16900000D01*
X23600000Y14100000D02*
G75*
G03*
X24300000Y14800000I1J699999D01*
G01*
X22300000Y14800000D02*
G75*
G03*
X23000000Y14100000I699999J-1D01*
G01*
X23000000Y16900000D02*
G75*
G03*
X22300000Y16200000I0J-700000D01*
G01*
X24300000Y16200000D02*
G75*
G03*
X23600000Y16900000I-700000J0D01*
G01*
%TO.C,JP10*%
X28100000Y16900000D02*
G75*
G03*
X27400000Y16200000I0J-700000D01*
G01*
X27400000Y14800000D02*
G75*
G03*
X28100000Y14100000I699999J-1D01*
G01*
X28700000Y14100000D02*
G75*
G03*
X29400000Y14800000I1J699999D01*
G01*
X29400000Y16200000D02*
G75*
G03*
X28700000Y16900000I-700000J0D01*
G01*
X28100000Y14100000D02*
X28700000Y14100000D01*
X28700000Y16900000D02*
X28100000Y16900000D01*
X27400000Y16200000D02*
X27400000Y14800000D01*
X29400000Y14800000D02*
X29400000Y16200000D01*
%TO.C,JP9*%
X25500000Y16900000D02*
G75*
G03*
X24800000Y16200000I0J-700000D01*
G01*
X24800000Y14800000D02*
G75*
G03*
X25500000Y14100000I699999J-1D01*
G01*
X26100000Y14100000D02*
G75*
G03*
X26800000Y14800000I1J699999D01*
G01*
X26800000Y16200000D02*
G75*
G03*
X26100000Y16900000I-700000J0D01*
G01*
X25500000Y14100000D02*
X26100000Y14100000D01*
X26100000Y16900000D02*
X25500000Y16900000D01*
X24800000Y16200000D02*
X24800000Y14800000D01*
X26800000Y14800000D02*
X26800000Y16200000D01*
%TO.C,JP8*%
X29900000Y16200000D02*
X29900000Y14800000D01*
X31900000Y14800000D02*
X31900000Y16200000D01*
X30600000Y14100000D02*
X31200000Y14100000D01*
X31200000Y16900000D02*
X30600000Y16900000D01*
X31200000Y14100000D02*
G75*
G03*
X31900000Y14800000I1J699999D01*
G01*
X29900000Y14800000D02*
G75*
G03*
X30600000Y14100000I699999J-1D01*
G01*
X30600000Y16900000D02*
G75*
G03*
X29900000Y16200000I0J-700000D01*
G01*
X31900000Y16200000D02*
G75*
G03*
X31200000Y16900000I-700000J0D01*
G01*
%TO.C,JP7*%
X34500000Y16200000D02*
G75*
G03*
X33800000Y16900000I-700000J0D01*
G01*
X33200000Y16900000D02*
G75*
G03*
X32500000Y16200000I0J-700000D01*
G01*
X32500000Y14800000D02*
G75*
G03*
X33200000Y14100000I699999J-1D01*
G01*
X33800000Y14100000D02*
G75*
G03*
X34500000Y14800000I1J699999D01*
G01*
X33800000Y16900000D02*
X33200000Y16900000D01*
X33200000Y14100000D02*
X33800000Y14100000D01*
X34500000Y14800000D02*
X34500000Y16200000D01*
X32500000Y16200000D02*
X32500000Y14800000D01*
%TO.C,JP6*%
X19800000Y13600000D02*
X19800000Y12200000D01*
X21800000Y12200000D02*
X21800000Y13600000D01*
X20500000Y11500000D02*
X21100000Y11500000D01*
X21100000Y14300000D02*
X20500000Y14300000D01*
X19800000Y12200000D02*
G75*
G03*
X20500000Y11500000I700000J0D01*
G01*
X20500000Y14300000D02*
G75*
G03*
X19800000Y13600000I-1J-699999D01*
G01*
X21800000Y13600000D02*
G75*
G03*
X21100000Y14300000I-699999J1D01*
G01*
X21100000Y11500000D02*
G75*
G03*
X21800000Y12200000I0J700000D01*
G01*
%TO.C,JP5*%
X22350000Y13600000D02*
X22350000Y12200000D01*
X24350000Y12200000D02*
X24350000Y13600000D01*
X23050000Y11500000D02*
X23650000Y11500000D01*
X23650000Y14300000D02*
X23050000Y14300000D01*
X22350000Y12200000D02*
G75*
G03*
X23050000Y11500000I700000J0D01*
G01*
X23050000Y14300000D02*
G75*
G03*
X22350000Y13600000I-1J-699999D01*
G01*
X24350000Y13600000D02*
G75*
G03*
X23650000Y14300000I-699999J1D01*
G01*
X23650000Y11500000D02*
G75*
G03*
X24350000Y12200000I0J700000D01*
G01*
%TO.C,JP4*%
X26800000Y12200000D02*
X26800000Y13600000D01*
X24800000Y13600000D02*
X24800000Y12200000D01*
X26100000Y14300000D02*
X25500000Y14300000D01*
X25500000Y11500000D02*
X26100000Y11500000D01*
X25500000Y14300000D02*
G75*
G03*
X24800000Y13600000I-1J-699999D01*
G01*
X26800000Y13600000D02*
G75*
G03*
X26100000Y14300000I-699999J1D01*
G01*
X26100000Y11500000D02*
G75*
G03*
X26800000Y12200000I0J700000D01*
G01*
X24800000Y12200000D02*
G75*
G03*
X25500000Y11500000I700000J0D01*
G01*
%TO.C,JP3*%
X29400000Y12200000D02*
X29400000Y13600000D01*
X27400000Y13600000D02*
X27400000Y12200000D01*
X28700000Y14300000D02*
X28100000Y14300000D01*
X28100000Y11500000D02*
X28700000Y11500000D01*
X28100000Y14300000D02*
G75*
G03*
X27400000Y13600000I-1J-699999D01*
G01*
X29400000Y13600000D02*
G75*
G03*
X28700000Y14300000I-699999J1D01*
G01*
X28700000Y11500000D02*
G75*
G03*
X29400000Y12200000I0J700000D01*
G01*
X27400000Y12200000D02*
G75*
G03*
X28100000Y11500000I700000J0D01*
G01*
%TO.C,JP2*%
X29900000Y13600000D02*
X29900000Y12200000D01*
X31900000Y12200000D02*
X31900000Y13600000D01*
X30600000Y11500000D02*
X31200000Y11500000D01*
X31200000Y14300000D02*
X30600000Y14300000D01*
X29900000Y12200000D02*
G75*
G03*
X30600000Y11500000I700000J0D01*
G01*
X30600000Y14300000D02*
G75*
G03*
X29900000Y13600000I-1J-699999D01*
G01*
X31900000Y13600000D02*
G75*
G03*
X31200000Y14300000I-699999J1D01*
G01*
X31200000Y11500000D02*
G75*
G03*
X31900000Y12200000I0J700000D01*
G01*
%TO.C,JP1*%
X32500000Y13600000D02*
X32500000Y12200000D01*
X34500000Y12200000D02*
X34500000Y13600000D01*
X33200000Y11500000D02*
X33800000Y11500000D01*
X33800000Y14300000D02*
X33200000Y14300000D01*
X33800000Y11500000D02*
G75*
G03*
X34500000Y12200000I1J699999D01*
G01*
X32500000Y12200000D02*
G75*
G03*
X33200000Y11500000I699999J-1D01*
G01*
X33200000Y14300000D02*
G75*
G03*
X32500000Y13600000I0J-700000D01*
G01*
X34500000Y13600000D02*
G75*
G03*
X33800000Y14300000I-700000J0D01*
G01*
%TO.C,J2*%
G36*
X40750000Y15750000D02*
G01*
X40250000Y16250000D01*
X41250000Y16250000D01*
X40750000Y15750000D01*
G37*
D12*
X40750000Y15750000D02*
X40250000Y16250000D01*
X41250000Y16250000D01*
X40750000Y15750000D01*
D11*
X40500000Y13750000D02*
X37750000Y13750000D01*
X40000000Y8250000D02*
X43750000Y8250000D01*
X46250000Y8250000D02*
X50000000Y8250000D01*
X37750000Y13750000D02*
X37750000Y13000000D01*
X39000000Y9250000D02*
X40000000Y8250000D01*
X52250000Y9250000D02*
X52250000Y10500000D01*
X37750000Y15000000D02*
X38750000Y15000000D01*
X37750000Y10500000D02*
X37750000Y9250000D01*
X52250000Y14250000D02*
X52250000Y15000000D01*
X38750000Y15000000D02*
X38750000Y14250000D01*
X51000000Y9250000D02*
X52250000Y9250000D01*
X37750000Y14250000D02*
X37750000Y15000000D01*
X37750000Y9250000D02*
X39000000Y9250000D01*
X52250000Y15000000D02*
X51250000Y15000000D01*
X51250000Y15000000D02*
X51250000Y14250000D01*
X50000000Y8250000D02*
X51000000Y9250000D01*
X52250000Y13000000D02*
X52250000Y13750000D01*
X52250000Y13750000D02*
X50250000Y13750000D01*
%TD*%
M02*
